<mxfile host="app.diagrams.net" agent="Mozilla/5.0 (Windows NT 10.0; Win64; x64) AppleWebKit/537.36 (KHTML, like Gecko) Chrome/130.0.0.0 Safari/537.36" version="24.8.4">
  <diagram name="Page-1" id="BALNnUDDlKnR-H4KEGmq">
    <mxGraphModel dx="3240" dy="2400" grid="1" gridSize="10" guides="1" tooltips="1" connect="1" arrows="1" fold="1" page="1" pageScale="1" pageWidth="850" pageHeight="1100" background="none" math="0" shadow="1">
      <root>
        <mxCell id="0" />
        <mxCell id="1" parent="0" />
        <mxCell id="ghngBfLgOj7lOZL47-MO-18" style="edgeStyle=orthogonalEdgeStyle;rounded=0;orthogonalLoop=1;jettySize=auto;html=1;exitX=0;exitY=0.5;exitDx=0;exitDy=0;entryX=0.5;entryY=0;entryDx=0;entryDy=0;shadow=1;fontSize=12;fontStyle=1;textShadow=0;fontFamily=Times New Roman;labelBorderColor=none;strokeWidth=1;" parent="1" source="ghngBfLgOj7lOZL47-MO-1" target="ghngBfLgOj7lOZL47-MO-5" edge="1">
          <mxGeometry relative="1" as="geometry" />
        </mxCell>
        <mxCell id="ghngBfLgOj7lOZL47-MO-25" style="edgeStyle=orthogonalEdgeStyle;rounded=0;orthogonalLoop=1;jettySize=auto;html=1;exitX=1;exitY=0.5;exitDx=0;exitDy=0;entryX=0.5;entryY=0;entryDx=0;entryDy=0;shadow=1;fontSize=12;fontStyle=1;textShadow=0;fontFamily=Times New Roman;labelBorderColor=none;strokeWidth=1;" parent="1" source="ghngBfLgOj7lOZL47-MO-1" target="ghngBfLgOj7lOZL47-MO-15" edge="1">
          <mxGeometry relative="1" as="geometry" />
        </mxCell>
        <mxCell id="ghngBfLgOj7lOZL47-MO-26" style="edgeStyle=orthogonalEdgeStyle;rounded=0;orthogonalLoop=1;jettySize=auto;html=1;exitX=1;exitY=0.5;exitDx=0;exitDy=0;entryX=0.5;entryY=0;entryDx=0;entryDy=0;shadow=1;fontSize=12;fontStyle=1;textShadow=0;fontFamily=Times New Roman;labelBorderColor=none;strokeWidth=1;" parent="1" source="ghngBfLgOj7lOZL47-MO-1" target="ghngBfLgOj7lOZL47-MO-16" edge="1">
          <mxGeometry relative="1" as="geometry" />
        </mxCell>
        <mxCell id="ghngBfLgOj7lOZL47-MO-27" style="edgeStyle=orthogonalEdgeStyle;rounded=0;orthogonalLoop=1;jettySize=auto;html=1;exitX=0;exitY=0.5;exitDx=0;exitDy=0;entryX=0.5;entryY=0;entryDx=0;entryDy=0;shadow=1;fontSize=12;fontStyle=1;textShadow=0;fontFamily=Times New Roman;labelBorderColor=none;strokeWidth=1;" parent="1" source="ghngBfLgOj7lOZL47-MO-1" target="ghngBfLgOj7lOZL47-MO-6" edge="1">
          <mxGeometry relative="1" as="geometry" />
        </mxCell>
        <mxCell id="ghngBfLgOj7lOZL47-MO-28" style="edgeStyle=orthogonalEdgeStyle;rounded=0;orthogonalLoop=1;jettySize=auto;html=1;exitX=0.5;exitY=1;exitDx=0;exitDy=0;entryX=0.5;entryY=0;entryDx=0;entryDy=0;shadow=1;fontSize=12;fontStyle=1;textShadow=0;fontFamily=Times New Roman;labelBorderColor=none;strokeWidth=1;" parent="1" source="ghngBfLgOj7lOZL47-MO-1" target="ghngBfLgOj7lOZL47-MO-7" edge="1">
          <mxGeometry relative="1" as="geometry" />
        </mxCell>
        <mxCell id="ghngBfLgOj7lOZL47-MO-29" style="edgeStyle=orthogonalEdgeStyle;rounded=0;orthogonalLoop=1;jettySize=auto;html=1;exitX=1;exitY=0.5;exitDx=0;exitDy=0;entryX=0.5;entryY=0;entryDx=0;entryDy=0;shadow=1;fontSize=12;fontStyle=1;textShadow=0;fontFamily=Times New Roman;labelBorderColor=none;strokeWidth=1;" parent="1" source="ghngBfLgOj7lOZL47-MO-1" target="ghngBfLgOj7lOZL47-MO-12" edge="1">
          <mxGeometry relative="1" as="geometry" />
        </mxCell>
        <mxCell id="ghngBfLgOj7lOZL47-MO-30" style="edgeStyle=orthogonalEdgeStyle;rounded=0;orthogonalLoop=1;jettySize=auto;html=1;exitX=1;exitY=0.5;exitDx=0;exitDy=0;entryX=0.5;entryY=0;entryDx=0;entryDy=0;shadow=1;fontSize=12;fontStyle=1;textShadow=0;fontFamily=Times New Roman;labelBorderColor=none;strokeWidth=1;" parent="1" source="ghngBfLgOj7lOZL47-MO-1" target="ghngBfLgOj7lOZL47-MO-13" edge="1">
          <mxGeometry relative="1" as="geometry" />
        </mxCell>
        <mxCell id="ghngBfLgOj7lOZL47-MO-134" style="edgeStyle=orthogonalEdgeStyle;rounded=0;orthogonalLoop=1;jettySize=auto;html=1;exitX=1;exitY=0.5;exitDx=0;exitDy=0;entryX=0.5;entryY=0;entryDx=0;entryDy=0;fontStyle=1;textShadow=0;shadow=1;fontFamily=Times New Roman;labelBorderColor=none;strokeWidth=1;fontSize=12;" parent="1" source="ghngBfLgOj7lOZL47-MO-1" target="ghngBfLgOj7lOZL47-MO-133" edge="1">
          <mxGeometry relative="1" as="geometry" />
        </mxCell>
        <mxCell id="ghngBfLgOj7lOZL47-MO-1" value="Real Name" style="rounded=1;whiteSpace=wrap;html=1;fillColor=#d5e8d4;strokeColor=#82b366;glass=1;shadow=1;fontSize=12;fontStyle=1;textShadow=0;fontFamily=Times New Roman;labelBorderColor=none;strokeWidth=1;" parent="1" vertex="1">
          <mxGeometry x="350" y="130" width="120" height="60" as="geometry" />
        </mxCell>
        <mxCell id="ghngBfLgOj7lOZL47-MO-2" value="&lt;h1 style=&quot;font-size: 12px;&quot;&gt;&lt;span style=&quot;font-size: 12px;&quot;&gt;&lt;font style=&quot;font-size: 12px;&quot;&gt;&lt;br style=&quot;font-size: 12px;&quot;&gt;&lt;/font&gt;&lt;/span&gt;&lt;/h1&gt;&lt;h1 style=&quot;font-size: 12px;&quot;&gt;&lt;span style=&quot;font-size: 12px;&quot;&gt;&lt;font style=&quot;font-size: 12px;&quot;&gt;OSINT Flow to search&amp;nbsp;&lt;/font&gt;&lt;/span&gt;&lt;/h1&gt;&lt;h1 style=&quot;font-size: 12px;&quot;&gt;&lt;span style=&quot;font-size: 12px;&quot;&gt;&lt;font style=&quot;font-size: 12px;&quot;&gt;#Person&amp;nbsp;&lt;/font&gt;&lt;/span&gt;&lt;/h1&gt;&lt;div style=&quot;font-size: 12px;&quot;&gt;&lt;br style=&quot;font-size: 12px;&quot;&gt;&lt;/div&gt;" style="text;html=1;align=center;verticalAlign=middle;whiteSpace=wrap;rounded=1;fillColor=#dae8fc;strokeColor=#6c8ebf;glass=1;shadow=1;fontStyle=1;textShadow=0;fontFamily=Times New Roman;labelBorderColor=none;strokeWidth=1;fontSize=12;" parent="1" vertex="1">
          <mxGeometry x="460" width="300" height="110" as="geometry" />
        </mxCell>
        <mxCell id="ghngBfLgOj7lOZL47-MO-3" value="&lt;div style=&quot;font-size: 12px;&quot;&gt;Designed by&lt;/div&gt;&lt;div style=&quot;font-size: 12px;&quot;&gt;&lt;span style=&quot;font-size: 12px;&quot;&gt;Mostafa Maher&lt;/span&gt;&lt;/div&gt;&lt;div style=&quot;font-size: 12px;&quot;&gt;&lt;br style=&quot;font-size: 12px;&quot;&gt;&lt;/div&gt;&lt;div style=&quot;font-size: 12px;&quot;&gt;Link:&amp;nbsp;&lt;/div&gt;&lt;div style=&quot;font-size: 12px;&quot;&gt;&lt;a style=&quot;font-size: 12px;&quot; href=&quot;https://www.linkedin.com/in/eng-mostafa-maher/&quot;&gt;https://www.linkedin.com/in/eng-mostafa-maher/&amp;nbsp;&lt;/a&gt;&lt;/div&gt;" style="text;html=1;align=center;verticalAlign=middle;whiteSpace=wrap;rounded=1;fillColor=#d5e8d4;strokeColor=#82b366;shadow=1;fontStyle=1;glass=1;textShadow=0;fontFamily=Times New Roman;labelBorderColor=none;strokeWidth=1;fontSize=12;" parent="1" vertex="1">
          <mxGeometry x="890" y="15" width="300" height="80" as="geometry" />
        </mxCell>
        <mxCell id="ghngBfLgOj7lOZL47-MO-11" value="" style="edgeStyle=orthogonalEdgeStyle;rounded=0;orthogonalLoop=1;jettySize=auto;html=1;shadow=1;fontSize=12;fontStyle=1;textShadow=0;fontFamily=Times New Roman;labelBorderColor=none;strokeWidth=1;" parent="1" source="ghngBfLgOj7lOZL47-MO-5" target="ghngBfLgOj7lOZL47-MO-10" edge="1">
          <mxGeometry relative="1" as="geometry" />
        </mxCell>
        <mxCell id="ghngBfLgOj7lOZL47-MO-188" style="edgeStyle=orthogonalEdgeStyle;rounded=0;orthogonalLoop=1;jettySize=auto;html=1;exitX=0.5;exitY=1;exitDx=0;exitDy=0;entryX=0.25;entryY=1;entryDx=0;entryDy=0;shadow=1;strokeWidth=1;fontFamily=Times New Roman;fontStyle=1;fontSize=12;" parent="1" source="ghngBfLgOj7lOZL47-MO-5" target="ghngBfLgOj7lOZL47-MO-13" edge="1">
          <mxGeometry relative="1" as="geometry" />
        </mxCell>
        <mxCell id="ghngBfLgOj7lOZL47-MO-5" value="Social Media" style="rounded=1;whiteSpace=wrap;html=1;fillColor=#fff2cc;strokeColor=#d6b656;glass=1;shadow=1;fontSize=12;fontStyle=1;textShadow=0;fontFamily=Times New Roman;labelBorderColor=none;strokeWidth=1;" parent="1" vertex="1">
          <mxGeometry x="8.75" y="240" width="120" height="60" as="geometry" />
        </mxCell>
        <mxCell id="ghngBfLgOj7lOZL47-MO-34" style="edgeStyle=orthogonalEdgeStyle;rounded=0;orthogonalLoop=1;jettySize=auto;html=1;exitX=0.5;exitY=1;exitDx=0;exitDy=0;entryX=0.5;entryY=0;entryDx=0;entryDy=0;fontStyle=1;textShadow=0;shadow=1;fontFamily=Times New Roman;labelBorderColor=none;strokeWidth=1;fontSize=12;" parent="1" source="ghngBfLgOj7lOZL47-MO-6" target="ghngBfLgOj7lOZL47-MO-33" edge="1">
          <mxGeometry relative="1" as="geometry" />
        </mxCell>
        <mxCell id="ghngBfLgOj7lOZL47-MO-189" style="edgeStyle=orthogonalEdgeStyle;rounded=0;orthogonalLoop=1;jettySize=auto;html=1;exitX=0.25;exitY=1;exitDx=0;exitDy=0;entryX=0.5;entryY=1;entryDx=0;entryDy=0;shadow=1;strokeWidth=1;fontFamily=Times New Roman;fontStyle=1;fontSize=12;" parent="1" source="ghngBfLgOj7lOZL47-MO-6" target="ghngBfLgOj7lOZL47-MO-13" edge="1">
          <mxGeometry relative="1" as="geometry">
            <Array as="points">
              <mxPoint x="210" y="330" />
              <mxPoint x="780" y="330" />
            </Array>
          </mxGeometry>
        </mxCell>
        <mxCell id="ghngBfLgOj7lOZL47-MO-192" style="edgeStyle=orthogonalEdgeStyle;rounded=0;orthogonalLoop=1;jettySize=auto;html=1;exitX=0.75;exitY=1;exitDx=0;exitDy=0;entryX=0.5;entryY=1;entryDx=0;entryDy=0;shadow=1;strokeWidth=1;fontFamily=Times New Roman;fontStyle=1;fontSize=12;" parent="1" source="ghngBfLgOj7lOZL47-MO-6" target="ghngBfLgOj7lOZL47-MO-15" edge="1">
          <mxGeometry relative="1" as="geometry" />
        </mxCell>
        <mxCell id="ghngBfLgOj7lOZL47-MO-6" value="Search Engines" style="rounded=1;whiteSpace=wrap;html=1;fillColor=#fff2cc;strokeColor=#d6b656;glass=1;shadow=1;fontSize=12;fontStyle=1;textShadow=0;fontFamily=Times New Roman;labelBorderColor=none;strokeWidth=1;" parent="1" vertex="1">
          <mxGeometry x="180" y="240" width="120" height="60" as="geometry" />
        </mxCell>
        <mxCell id="ghngBfLgOj7lOZL47-MO-36" style="edgeStyle=orthogonalEdgeStyle;rounded=0;orthogonalLoop=1;jettySize=auto;html=1;exitX=0.5;exitY=1;exitDx=0;exitDy=0;entryX=0.5;entryY=0;entryDx=0;entryDy=0;fontStyle=1;textShadow=0;shadow=1;fontFamily=Times New Roman;labelBorderColor=none;strokeWidth=1;fontSize=12;" parent="1" source="ghngBfLgOj7lOZL47-MO-7" target="ghngBfLgOj7lOZL47-MO-35" edge="1">
          <mxGeometry relative="1" as="geometry" />
        </mxCell>
        <mxCell id="ghngBfLgOj7lOZL47-MO-190" style="edgeStyle=orthogonalEdgeStyle;rounded=0;orthogonalLoop=1;jettySize=auto;html=1;exitX=0.25;exitY=1;exitDx=0;exitDy=0;entryX=0.75;entryY=1;entryDx=0;entryDy=0;shadow=1;strokeWidth=1;fontFamily=Times New Roman;fontStyle=1;fontSize=12;" parent="1" source="ghngBfLgOj7lOZL47-MO-7" target="ghngBfLgOj7lOZL47-MO-13" edge="1">
          <mxGeometry relative="1" as="geometry">
            <Array as="points">
              <mxPoint x="380" y="340" />
              <mxPoint x="810" y="340" />
            </Array>
          </mxGeometry>
        </mxCell>
        <mxCell id="ghngBfLgOj7lOZL47-MO-191" style="edgeStyle=orthogonalEdgeStyle;rounded=0;orthogonalLoop=1;jettySize=auto;html=1;exitX=0.75;exitY=1;exitDx=0;exitDy=0;entryX=0.25;entryY=1;entryDx=0;entryDy=0;shadow=1;strokeWidth=1;fontFamily=Times New Roman;fontStyle=1;fontSize=12;" parent="1" source="ghngBfLgOj7lOZL47-MO-7" target="ghngBfLgOj7lOZL47-MO-15" edge="1">
          <mxGeometry relative="1" as="geometry" />
        </mxCell>
        <mxCell id="ghngBfLgOj7lOZL47-MO-7" value="People Search Engines" style="rounded=1;whiteSpace=wrap;html=1;shadow=1;fillColor=#fff2cc;strokeColor=#d6b656;glass=1;fontSize=12;fontStyle=1;textShadow=0;fontFamily=Times New Roman;labelBorderColor=none;strokeWidth=1;" parent="1" vertex="1">
          <mxGeometry x="350" y="240" width="120" height="60" as="geometry" />
        </mxCell>
        <mxCell id="ghngBfLgOj7lOZL47-MO-40" style="edgeStyle=orthogonalEdgeStyle;rounded=0;orthogonalLoop=1;jettySize=auto;html=1;exitX=0;exitY=0.5;exitDx=0;exitDy=0;entryX=0;entryY=0.5;entryDx=0;entryDy=0;fontStyle=1;textShadow=0;shadow=1;fontFamily=Times New Roman;labelBorderColor=none;strokeWidth=1;fontSize=12;" parent="1" source="ghngBfLgOj7lOZL47-MO-10" target="ghngBfLgOj7lOZL47-MO-37" edge="1">
          <mxGeometry relative="1" as="geometry" />
        </mxCell>
        <mxCell id="ghngBfLgOj7lOZL47-MO-41" style="edgeStyle=orthogonalEdgeStyle;rounded=0;orthogonalLoop=1;jettySize=auto;html=1;exitX=0;exitY=0.5;exitDx=0;exitDy=0;entryX=0;entryY=0.5;entryDx=0;entryDy=0;fontStyle=1;textShadow=0;shadow=1;fontFamily=Times New Roman;labelBorderColor=none;strokeWidth=1;fontSize=12;" parent="1" source="ghngBfLgOj7lOZL47-MO-10" target="ghngBfLgOj7lOZL47-MO-38" edge="1">
          <mxGeometry relative="1" as="geometry" />
        </mxCell>
        <mxCell id="ghngBfLgOj7lOZL47-MO-44" style="edgeStyle=orthogonalEdgeStyle;rounded=0;orthogonalLoop=1;jettySize=auto;html=1;exitX=0;exitY=0.5;exitDx=0;exitDy=0;entryX=0;entryY=0.5;entryDx=0;entryDy=0;fontStyle=1;textShadow=0;shadow=1;fontFamily=Times New Roman;labelBorderColor=none;strokeWidth=1;fontSize=12;" parent="1" source="ghngBfLgOj7lOZL47-MO-10" target="ghngBfLgOj7lOZL47-MO-43" edge="1">
          <mxGeometry relative="1" as="geometry" />
        </mxCell>
        <mxCell id="ghngBfLgOj7lOZL47-MO-10" value="&lt;div style=&quot;font-size: 12px;&quot;&gt;&lt;div style=&quot;text-align: center; font-size: 12px;&quot;&gt;&lt;span style=&quot;font-size: 12px;&quot;&gt;Example&lt;/span&gt;&lt;/div&gt;&lt;div style=&quot;font-size: 12px;&quot;&gt;1. Facebook(US)&lt;/div&gt;&lt;div style=&quot;font-size: 12px;&quot;&gt;2. YouTube(US)&lt;/div&gt;&lt;div style=&quot;font-size: 12px;&quot;&gt;3. WhatsApp(US)&lt;/div&gt;&lt;div style=&quot;font-size: 12px;&quot;&gt;4. Instagram(US)&lt;/div&gt;&lt;div style=&quot;font-size: 12px;&quot;&gt;5. TikTok(China)&lt;/div&gt;&lt;div style=&quot;font-size: 12px;&quot;&gt;6. WeChat(China)&lt;/div&gt;&lt;div style=&quot;font-size: 12px;&quot;&gt;7. FB Messenger(US)&lt;/div&gt;&lt;div style=&quot;font-size: 12px;&quot;&gt;8. Telegram()&lt;/div&gt;&lt;div style=&quot;font-size: 12px;&quot;&gt;9. LinkedIn(US)&lt;/div&gt;&lt;div style=&quot;font-size: 12px;&quot;&gt;10. Snapchat(US)&lt;/div&gt;&lt;div style=&quot;font-size: 12px;&quot;&gt;11. Douyin(China)&lt;/div&gt;&lt;div style=&quot;font-size: 12px;&quot;&gt;12. Kuaishou(China)&lt;/div&gt;&lt;div style=&quot;font-size: 12px;&quot;&gt;13. Weibo(China)&lt;/div&gt;&lt;div style=&quot;font-size: 12px;&quot;&gt;14. QQ(China)&lt;/div&gt;&lt;div style=&quot;font-size: 12px;&quot;&gt;15. X (Twitter)(US)&lt;/div&gt;&lt;div style=&quot;font-size: 12px;&quot;&gt;16. Qzone(China)&lt;/div&gt;&lt;div style=&quot;font-size: 12px;&quot;&gt;17. Reddit(US)&lt;/div&gt;&lt;div style=&quot;font-size: 12px;&quot;&gt;18. Pinterest(US)&lt;/div&gt;&lt;div style=&quot;font-size: 12px;&quot;&gt;19. Quora(US)&lt;/div&gt;&lt;div style=&quot;font-size: 12px;&quot;&gt;20. JOSH(India)&lt;/div&gt;&lt;div style=&quot;font-size: 12px;&quot;&gt;21. Teams(US)&lt;/div&gt;&lt;div style=&quot;font-size: 12px;&quot;&gt;22. Skype(US)&lt;/div&gt;&lt;div style=&quot;font-size: 12px;&quot;&gt;23. Tieba(US)&lt;/div&gt;&lt;div style=&quot;font-size: 12px;&quot;&gt;24. Threads(US)&lt;/div&gt;&lt;div style=&quot;font-size: 12px;&quot;&gt;25. Viber(Cyprus)&lt;/div&gt;&lt;div style=&quot;font-size: 12px;&quot;&gt;26. imo(US)&lt;/div&gt;&lt;div style=&quot;font-size: 12px;&quot;&gt;27. Xiaohongshu(China)&lt;/div&gt;&lt;div style=&quot;font-size: 12px;&quot;&gt;28. Twitch(US)&lt;/div&gt;&lt;div style=&quot;font-size: 12px;&quot;&gt;29. Line(Japan)&lt;/div&gt;&lt;div style=&quot;font-size: 12px;&quot;&gt;30. Discord(US)&lt;/div&gt;&lt;div style=&quot;font-size: 12px;&quot;&gt;31. Likee(Singapore)&lt;/div&gt;&lt;div style=&quot;font-size: 12px;&quot;&gt;32. Picsart(US)&lt;/div&gt;&lt;div style=&quot;font-size: 12px;&quot;&gt;33. Vevo(US)&lt;/div&gt;&lt;div style=&quot;font-size: 12px;&quot;&gt;34. Tumblr(US)&lt;/div&gt;&lt;/div&gt;" style="rounded=1;whiteSpace=wrap;html=1;align=left;perimeterSpacing=0;strokeWidth=1;spacingLeft=3;shadow=1;fontSize=12;glass=1;fillColor=#eeeeee;strokeColor=#36393d;fontStyle=1;textShadow=0;fontFamily=Times New Roman;labelBorderColor=none;" parent="1" vertex="1">
          <mxGeometry x="-6.25" y="396" width="150" height="520" as="geometry" />
        </mxCell>
        <mxCell id="ghngBfLgOj7lOZL47-MO-138" style="edgeStyle=orthogonalEdgeStyle;rounded=0;orthogonalLoop=1;jettySize=auto;html=1;exitX=0.5;exitY=1;exitDx=0;exitDy=0;entryX=0.5;entryY=0;entryDx=0;entryDy=0;fontStyle=1;textShadow=0;shadow=1;fontFamily=Times New Roman;labelBorderColor=none;strokeWidth=1;fontSize=12;" parent="1" source="ghngBfLgOj7lOZL47-MO-12" target="ghngBfLgOj7lOZL47-MO-137" edge="1">
          <mxGeometry relative="1" as="geometry" />
        </mxCell>
        <mxCell id="ghngBfLgOj7lOZL47-MO-12" value="Username" style="rounded=1;whiteSpace=wrap;html=1;shadow=1;fillColor=#fff2cc;strokeColor=#d6b656;glass=1;fontSize=12;fontStyle=1;textShadow=0;fontFamily=Times New Roman;labelBorderColor=none;strokeWidth=1;" parent="1" vertex="1">
          <mxGeometry x="530" y="240" width="120" height="60" as="geometry" />
        </mxCell>
        <mxCell id="ghngBfLgOj7lOZL47-MO-180" style="edgeStyle=orthogonalEdgeStyle;rounded=0;orthogonalLoop=1;jettySize=auto;html=1;exitX=0;exitY=0.5;exitDx=0;exitDy=0;entryX=1;entryY=0.5;entryDx=0;entryDy=0;shadow=1;strokeWidth=1;fontFamily=Times New Roman;fontStyle=1;fontSize=12;" parent="1" source="ghngBfLgOj7lOZL47-MO-13" target="ghngBfLgOj7lOZL47-MO-120" edge="1">
          <mxGeometry relative="1" as="geometry">
            <Array as="points">
              <mxPoint x="710" y="270" />
              <mxPoint x="710" y="2070" />
            </Array>
          </mxGeometry>
        </mxCell>
        <mxCell id="ghngBfLgOj7lOZL47-MO-181" style="edgeStyle=orthogonalEdgeStyle;rounded=0;orthogonalLoop=1;jettySize=auto;html=1;exitX=0;exitY=0.5;exitDx=0;exitDy=0;entryX=1;entryY=0.5;entryDx=0;entryDy=0;shadow=1;strokeWidth=1;fontFamily=Times New Roman;fontStyle=1;fontSize=12;" parent="1" source="ghngBfLgOj7lOZL47-MO-13" target="ghngBfLgOj7lOZL47-MO-75" edge="1">
          <mxGeometry relative="1" as="geometry">
            <Array as="points">
              <mxPoint x="710" y="270" />
              <mxPoint x="710" y="1610" />
            </Array>
          </mxGeometry>
        </mxCell>
        <mxCell id="ghngBfLgOj7lOZL47-MO-197" style="edgeStyle=orthogonalEdgeStyle;rounded=0;orthogonalLoop=1;jettySize=auto;html=1;exitX=0;exitY=0.5;exitDx=0;exitDy=0;entryX=1;entryY=0.5;entryDx=0;entryDy=0;shadow=1;strokeWidth=1;fontFamily=Times New Roman;fontStyle=1;fontSize=12;" parent="1" source="ghngBfLgOj7lOZL47-MO-13" target="ghngBfLgOj7lOZL47-MO-52" edge="1">
          <mxGeometry relative="1" as="geometry">
            <Array as="points">
              <mxPoint x="710" y="270" />
              <mxPoint x="710" y="1291" />
            </Array>
          </mxGeometry>
        </mxCell>
        <mxCell id="dho65S2ZdlVvDXCPowKT-2" style="edgeStyle=orthogonalEdgeStyle;rounded=0;orthogonalLoop=1;jettySize=auto;html=1;exitX=0;exitY=0.5;exitDx=0;exitDy=0;entryX=0;entryY=0.5;entryDx=0;entryDy=0;shadow=1;strokeWidth=1;fontSize=12;fontFamily=Times New Roman;" edge="1" parent="1" source="ghngBfLgOj7lOZL47-MO-13" target="ghngBfLgOj7lOZL47-MO-139">
          <mxGeometry relative="1" as="geometry">
            <Array as="points">
              <mxPoint x="710" y="270" />
              <mxPoint x="710" y="426" />
            </Array>
          </mxGeometry>
        </mxCell>
        <mxCell id="dho65S2ZdlVvDXCPowKT-4" style="edgeStyle=orthogonalEdgeStyle;rounded=0;orthogonalLoop=1;jettySize=auto;html=1;exitX=0;exitY=0.5;exitDx=0;exitDy=0;entryX=0;entryY=0.5;entryDx=0;entryDy=0;shadow=1;strokeWidth=1;fontSize=12;fontFamily=Times New Roman;" edge="1" parent="1" source="ghngBfLgOj7lOZL47-MO-13" target="ghngBfLgOj7lOZL47-MO-141">
          <mxGeometry relative="1" as="geometry">
            <Array as="points">
              <mxPoint x="710" y="270" />
              <mxPoint x="710" y="626" />
            </Array>
          </mxGeometry>
        </mxCell>
        <mxCell id="dho65S2ZdlVvDXCPowKT-6" style="edgeStyle=orthogonalEdgeStyle;rounded=0;orthogonalLoop=1;jettySize=auto;html=1;exitX=0;exitY=0.5;exitDx=0;exitDy=0;entryX=0;entryY=0.5;entryDx=0;entryDy=0;shadow=1;fontSize=12;fontFamily=Times New Roman;" edge="1" parent="1" source="ghngBfLgOj7lOZL47-MO-13" target="ghngBfLgOj7lOZL47-MO-142">
          <mxGeometry relative="1" as="geometry">
            <Array as="points">
              <mxPoint x="710" y="270" />
              <mxPoint x="710" y="826" />
            </Array>
          </mxGeometry>
        </mxCell>
        <mxCell id="ghngBfLgOj7lOZL47-MO-13" value="Images" style="rounded=1;whiteSpace=wrap;html=1;shadow=1;fillColor=#fff2cc;strokeColor=#d6b656;glass=1;fontSize=12;fontStyle=1;textShadow=0;fontFamily=Times New Roman;labelBorderColor=none;strokeWidth=1;" parent="1" vertex="1">
          <mxGeometry x="720" y="240" width="120" height="60" as="geometry" />
        </mxCell>
        <mxCell id="ghngBfLgOj7lOZL47-MO-193" style="edgeStyle=orthogonalEdgeStyle;rounded=0;orthogonalLoop=1;jettySize=auto;html=1;exitX=0.75;exitY=1;exitDx=0;exitDy=0;entryX=1;entryY=0.5;entryDx=0;entryDy=0;shadow=1;strokeWidth=1;fontFamily=Times New Roman;fontStyle=1;fontSize=12;" parent="1" source="ghngBfLgOj7lOZL47-MO-15" target="ghngBfLgOj7lOZL47-MO-127" edge="1">
          <mxGeometry relative="1" as="geometry" />
        </mxCell>
        <mxCell id="ghngBfLgOj7lOZL47-MO-194" style="edgeStyle=orthogonalEdgeStyle;rounded=0;orthogonalLoop=1;jettySize=auto;html=1;exitX=0.75;exitY=1;exitDx=0;exitDy=0;entryX=1;entryY=0.5;entryDx=0;entryDy=0;shadow=1;strokeWidth=1;fontFamily=Times New Roman;fontStyle=1;fontSize=12;" parent="1" source="ghngBfLgOj7lOZL47-MO-15" target="ghngBfLgOj7lOZL47-MO-106" edge="1">
          <mxGeometry relative="1" as="geometry" />
        </mxCell>
        <mxCell id="ghngBfLgOj7lOZL47-MO-195" style="edgeStyle=orthogonalEdgeStyle;rounded=0;orthogonalLoop=1;jettySize=auto;html=1;exitX=0.75;exitY=1;exitDx=0;exitDy=0;entryX=1;entryY=0.5;entryDx=0;entryDy=0;shadow=1;strokeWidth=1;fontFamily=Times New Roman;fontStyle=1;fontSize=12;" parent="1" source="ghngBfLgOj7lOZL47-MO-15" target="ghngBfLgOj7lOZL47-MO-123" edge="1">
          <mxGeometry relative="1" as="geometry" />
        </mxCell>
        <mxCell id="ghngBfLgOj7lOZL47-MO-15" value="Address" style="rounded=1;whiteSpace=wrap;html=1;shadow=1;fillColor=#fff2cc;strokeColor=#d6b656;glass=1;fontSize=12;fontStyle=1;textShadow=0;fontFamily=Times New Roman;labelBorderColor=none;strokeWidth=1;" parent="1" vertex="1">
          <mxGeometry x="955" y="240" width="120" height="60" as="geometry" />
        </mxCell>
        <mxCell id="ghngBfLgOj7lOZL47-MO-176" style="edgeStyle=orthogonalEdgeStyle;rounded=0;orthogonalLoop=1;jettySize=auto;html=1;exitX=0.5;exitY=1;exitDx=0;exitDy=0;entryX=0.5;entryY=0;entryDx=0;entryDy=0;fontFamily=Times New Roman;labelBorderColor=none;textShadow=0;shadow=1;strokeWidth=1;fontStyle=1;fontSize=12;" parent="1" source="ghngBfLgOj7lOZL47-MO-16" target="ghngBfLgOj7lOZL47-MO-175" edge="1">
          <mxGeometry relative="1" as="geometry" />
        </mxCell>
        <mxCell id="ghngBfLgOj7lOZL47-MO-16" value="Phone" style="rounded=1;whiteSpace=wrap;html=1;shadow=1;fillColor=#fff2cc;strokeColor=#d6b656;glass=1;fontSize=12;fontStyle=1;textShadow=0;fontFamily=Times New Roman;labelBorderColor=none;strokeWidth=1;" parent="1" vertex="1">
          <mxGeometry x="1150" y="240" width="120" height="60" as="geometry" />
        </mxCell>
        <mxCell id="ghngBfLgOj7lOZL47-MO-33" value="&lt;div style=&quot;font-size: 12px;&quot;&gt;&lt;div style=&quot;font-size: 12px;&quot;&gt;&lt;div style=&quot;font-size: 12px; text-align: center;&quot;&gt;&lt;span style=&quot;font-size: 12px;&quot;&gt;Example&lt;/span&gt;&lt;/div&gt;&lt;div style=&quot;font-size: 12px;&quot;&gt;&lt;div style=&quot;font-size: 12px;&quot;&gt;1. Ask.com&lt;/div&gt;&lt;div style=&quot;font-size: 12px;&quot;&gt;2. Baidu&lt;/div&gt;&lt;div style=&quot;font-size: 12px;&quot;&gt;3. Brave Search&lt;/div&gt;&lt;div style=&quot;font-size: 12px;&quot;&gt;4. Dogpile&lt;/div&gt;&lt;div style=&quot;font-size: 12px;&quot;&gt;5. DuckDuckGo&lt;/div&gt;&lt;div style=&quot;font-size: 12px;&quot;&gt;6. Ecosia&lt;/div&gt;&lt;div style=&quot;font-size: 12px;&quot;&gt;7. Elasticsearch&lt;/div&gt;&lt;div style=&quot;font-size: 12px;&quot;&gt;8. Exalead&lt;/div&gt;&lt;div style=&quot;font-size: 12px;&quot;&gt;9. Excite&lt;/div&gt;&lt;div style=&quot;font-size: 12px;&quot;&gt;10. Gigablast&lt;/div&gt;&lt;div style=&quot;font-size: 12px;&quot;&gt;11. Google&lt;/div&gt;&lt;div style=&quot;font-size: 12px;&quot;&gt;12. HotBot&lt;/div&gt;&lt;div style=&quot;font-size: 12px;&quot;&gt;13. Kagi&lt;/div&gt;&lt;div style=&quot;font-size: 12px;&quot;&gt;14. Lycos&lt;/div&gt;&lt;div style=&quot;font-size: 12px;&quot;&gt;15. MetaCrawler&lt;/div&gt;&lt;div style=&quot;font-size: 12px;&quot;&gt;16. Microsoft Bing&lt;/div&gt;&lt;div style=&quot;font-size: 12px;&quot;&gt;17. Mojeek&lt;/div&gt;&lt;div style=&quot;font-size: 12px;&quot;&gt;18. Opensearch&lt;/div&gt;&lt;div style=&quot;font-size: 12px;&quot;&gt;19. Petal&lt;/div&gt;&lt;div style=&quot;font-size: 12px;&quot;&gt;20. Qwant&lt;/div&gt;&lt;div style=&quot;font-size: 12px;&quot;&gt;21. Searx&lt;/div&gt;&lt;div style=&quot;font-size: 12px;&quot;&gt;22. Sogou&lt;/div&gt;&lt;div style=&quot;font-size: 12px;&quot;&gt;23. Startpage&lt;/div&gt;&lt;div style=&quot;font-size: 12px;&quot;&gt;24. Swisscows&lt;/div&gt;&lt;div style=&quot;font-size: 12px;&quot;&gt;25. WebCrawler&lt;/div&gt;&lt;div style=&quot;font-size: 12px;&quot;&gt;26. YaCy&lt;/div&gt;&lt;div style=&quot;font-size: 12px;&quot;&gt;27. Yahoo! Search&lt;/div&gt;&lt;div style=&quot;font-size: 12px;&quot;&gt;28. Yandex&lt;/div&gt;&lt;div style=&quot;font-size: 12px;&quot;&gt;29. Youdao&lt;/div&gt;&lt;div style=&quot;font-size: 12px;&quot;&gt;30. You.com&lt;/div&gt;&lt;/div&gt;&lt;/div&gt;&lt;/div&gt;" style="rounded=1;whiteSpace=wrap;html=1;align=left;perimeterSpacing=0;strokeWidth=1;spacingLeft=3;shadow=1;fontSize=12;glass=1;fillColor=#eeeeee;strokeColor=#36393d;fontStyle=1;textShadow=0;fontFamily=Times New Roman;labelBorderColor=none;" parent="1" vertex="1">
          <mxGeometry x="171.25" y="396" width="137.5" height="460" as="geometry" />
        </mxCell>
        <mxCell id="ghngBfLgOj7lOZL47-MO-35" value="&lt;div style=&quot;font-size: 12px;&quot;&gt;&lt;div style=&quot;font-size: 12px;&quot;&gt;&lt;div style=&quot;text-align: center; font-size: 12px;&quot;&gt;&lt;span style=&quot;font-size: 12px;&quot;&gt;Example&lt;/span&gt;&lt;/div&gt;&lt;div style=&quot;font-size: 12px;&quot;&gt;&lt;div style=&quot;font-size: 12px;&quot;&gt;1. AdvCheck&lt;/div&gt;&lt;div style=&quot;font-size: 12px;&quot;&gt;2. spokeo&lt;/div&gt;&lt;div style=&quot;font-size: 12px;&quot;&gt;3. Fast People Search&lt;/div&gt;&lt;div style=&quot;font-size: 12px;&quot;&gt;4. True People Search&lt;/div&gt;&lt;div style=&quot;font-size: 12px;&quot;&gt;5. Cubib&lt;/div&gt;&lt;div style=&quot;font-size: 12px;&quot;&gt;6. Sorted By Name&lt;/div&gt;&lt;div style=&quot;font-size: 12px;&quot;&gt;7. Addresses.com&lt;/div&gt;&lt;div style=&quot;font-size: 12px;&quot;&gt;8. AnyWho&lt;/div&gt;&lt;div style=&quot;font-size: 12px;&quot;&gt;9. My Life&lt;/div&gt;&lt;div style=&quot;font-size: 12px;&quot;&gt;10. Genealogy.com&lt;/div&gt;&lt;div style=&quot;font-size: 12px;&quot;&gt;11. Nuwber&lt;/div&gt;&lt;div style=&quot;font-size: 12px;&quot;&gt;12. Ancestry.com&lt;/div&gt;&lt;div style=&quot;font-size: 12px;&quot;&gt;13. FamilySearch.org&lt;/div&gt;&lt;div style=&quot;font-size: 12px;&quot;&gt;14. HowManyOfMe&lt;/div&gt;&lt;div style=&quot;font-size: 12px;&quot;&gt;15. findmypast.com&lt;/div&gt;&lt;div style=&quot;font-size: 12px;&quot;&gt;16. Yasni&lt;/div&gt;&lt;div style=&quot;font-size: 12px;&quot;&gt;17. Lullar&lt;/div&gt;&lt;div style=&quot;font-size: 12px;&quot;&gt;18. Snitch.name&lt;/div&gt;&lt;div style=&quot;font-size: 12px;&quot;&gt;19. Webmii&lt;/div&gt;&lt;div style=&quot;font-size: 12px;&quot;&gt;20. Waatp&lt;/div&gt;&lt;div style=&quot;font-size: 12px;&quot;&gt;21. InfoSpace&lt;/div&gt;&lt;div style=&quot;font-size: 12px;&quot;&gt;22. Intelius&lt;/div&gt;&lt;div style=&quot;font-size: 12px;&quot;&gt;23. Radaris&lt;/div&gt;&lt;div style=&quot;font-size: 12px;&quot;&gt;24. Wink People Search&lt;/div&gt;&lt;div style=&quot;font-size: 12px;&quot;&gt;25. Reverse Genie People&lt;/div&gt;&lt;div style=&quot;font-size: 12px;&quot;&gt;26. PeekYou&lt;/div&gt;&lt;div style=&quot;font-size: 12px;&quot;&gt;27. SalesMaple Contact Search&lt;/div&gt;&lt;div style=&quot;font-size: 12px;&quot;&gt;28. Advanced Background Checks&lt;/div&gt;&lt;div style=&quot;font-size: 12px;&quot;&gt;29. USSearch.com&lt;/div&gt;&lt;div style=&quot;font-size: 12px;&quot;&gt;30. Zaba Search&lt;/div&gt;&lt;div style=&quot;font-size: 12px;&quot;&gt;31. ZoomInfo Directory&lt;/div&gt;&lt;div style=&quot;font-size: 12px;&quot;&gt;32. ThatsThem&lt;/div&gt;&lt;div style=&quot;font-size: 12px;&quot;&gt;33. InfoFlow Public People Search In Chilean&lt;/div&gt;&lt;div style=&quot;font-size: 12px;&quot;&gt;34. Family Tree Now&lt;/div&gt;&lt;div style=&quot;font-size: 12px;&quot;&gt;35. beenverified.com&lt;/div&gt;&lt;div style=&quot;font-size: 12px;&quot;&gt;36. beenverified.com&lt;/div&gt;&lt;div style=&quot;font-size: 12px;&quot;&gt;&lt;br style=&quot;font-size: 12px;&quot;&gt;&lt;/div&gt;&lt;/div&gt;&lt;/div&gt;&lt;/div&gt;" style="rounded=1;whiteSpace=wrap;html=1;align=left;perimeterSpacing=0;strokeWidth=1;spacingLeft=4;shadow=1;fontSize=12;glass=1;fillColor=#eeeeee;strokeColor=#36393d;fontStyle=1;textShadow=0;fontFamily=Times New Roman;labelBorderColor=none;" parent="1" vertex="1">
          <mxGeometry x="341.25" y="366" width="137.5" height="640" as="geometry" />
        </mxCell>
        <mxCell id="ghngBfLgOj7lOZL47-MO-68" style="edgeStyle=orthogonalEdgeStyle;rounded=0;orthogonalLoop=1;jettySize=auto;html=1;exitX=0.5;exitY=0;exitDx=0;exitDy=0;entryX=0.5;entryY=0;entryDx=0;entryDy=0;fontStyle=1;textShadow=0;shadow=1;fontFamily=Times New Roman;labelBorderColor=none;strokeWidth=1;fontSize=12;" parent="1" source="ghngBfLgOj7lOZL47-MO-37" target="ghngBfLgOj7lOZL47-MO-42" edge="1">
          <mxGeometry relative="1" as="geometry" />
        </mxCell>
        <mxCell id="ghngBfLgOj7lOZL47-MO-69" style="edgeStyle=orthogonalEdgeStyle;rounded=0;orthogonalLoop=1;jettySize=auto;html=1;exitX=0.5;exitY=0;exitDx=0;exitDy=0;entryX=0.5;entryY=0;entryDx=0;entryDy=0;fontStyle=1;textShadow=0;shadow=1;fontFamily=Times New Roman;labelBorderColor=none;strokeWidth=1;fontSize=12;" parent="1" source="ghngBfLgOj7lOZL47-MO-37" target="ghngBfLgOj7lOZL47-MO-45" edge="1">
          <mxGeometry relative="1" as="geometry" />
        </mxCell>
        <mxCell id="ghngBfLgOj7lOZL47-MO-153" style="edgeStyle=orthogonalEdgeStyle;rounded=0;orthogonalLoop=1;jettySize=auto;html=1;exitX=0.5;exitY=1;exitDx=0;exitDy=0;entryX=0.5;entryY=0;entryDx=0;entryDy=0;fontFamily=Times New Roman;labelBorderColor=none;textShadow=0;shadow=1;strokeWidth=1;fontStyle=1;fontSize=12;" parent="1" source="ghngBfLgOj7lOZL47-MO-37" target="ghngBfLgOj7lOZL47-MO-85" edge="1">
          <mxGeometry relative="1" as="geometry" />
        </mxCell>
        <mxCell id="ghngBfLgOj7lOZL47-MO-37" value="Facebook&amp;nbsp;" style="rounded=1;whiteSpace=wrap;html=1;shadow=1;fillColor=#cce5ff;strokeColor=#36393d;fontStyle=1;textShadow=0;fontFamily=Times New Roman;labelBorderColor=none;strokeWidth=1;fontSize=12;" parent="1" vertex="1">
          <mxGeometry y="1041" width="120" height="60" as="geometry" />
        </mxCell>
        <mxCell id="ghngBfLgOj7lOZL47-MO-80" style="edgeStyle=orthogonalEdgeStyle;rounded=0;orthogonalLoop=1;jettySize=auto;html=1;exitX=0.5;exitY=0;exitDx=0;exitDy=0;entryX=0.5;entryY=0;entryDx=0;entryDy=0;fontStyle=1;textShadow=0;shadow=1;fontFamily=Times New Roman;labelBorderColor=none;strokeWidth=1;fontSize=12;" parent="1" source="ghngBfLgOj7lOZL47-MO-38" target="ghngBfLgOj7lOZL47-MO-73" edge="1">
          <mxGeometry relative="1" as="geometry" />
        </mxCell>
        <mxCell id="ghngBfLgOj7lOZL47-MO-81" style="edgeStyle=orthogonalEdgeStyle;rounded=0;orthogonalLoop=1;jettySize=auto;html=1;exitX=0.5;exitY=0;exitDx=0;exitDy=0;entryX=0.5;entryY=0;entryDx=0;entryDy=0;fontStyle=1;textShadow=0;shadow=1;fontFamily=Times New Roman;labelBorderColor=none;strokeWidth=1;fontSize=12;" parent="1" source="ghngBfLgOj7lOZL47-MO-38" target="ghngBfLgOj7lOZL47-MO-74" edge="1">
          <mxGeometry relative="1" as="geometry" />
        </mxCell>
        <mxCell id="ghngBfLgOj7lOZL47-MO-82" style="edgeStyle=orthogonalEdgeStyle;rounded=0;orthogonalLoop=1;jettySize=auto;html=1;exitX=0.5;exitY=0;exitDx=0;exitDy=0;entryX=0.5;entryY=0;entryDx=0;entryDy=0;fontStyle=1;textShadow=0;shadow=1;fontFamily=Times New Roman;labelBorderColor=none;strokeWidth=1;fontSize=12;" parent="1" source="ghngBfLgOj7lOZL47-MO-38" target="ghngBfLgOj7lOZL47-MO-75" edge="1">
          <mxGeometry relative="1" as="geometry" />
        </mxCell>
        <mxCell id="ghngBfLgOj7lOZL47-MO-38" value="Twitter (X)" style="rounded=1;whiteSpace=wrap;html=1;shadow=1;fillColor=#f5f5f5;gradientColor=#b3b3b3;strokeColor=#666666;fontStyle=1;textShadow=0;fontFamily=Times New Roman;labelBorderColor=none;strokeWidth=1;fontSize=12;" parent="1" vertex="1">
          <mxGeometry y="1590" width="120" height="60" as="geometry" />
        </mxCell>
        <mxCell id="ghngBfLgOj7lOZL47-MO-71" style="edgeStyle=orthogonalEdgeStyle;rounded=0;orthogonalLoop=1;jettySize=auto;html=1;exitX=1;exitY=0.5;exitDx=0;exitDy=0;entryX=0;entryY=0.5;entryDx=0;entryDy=0;fontStyle=1;textShadow=0;shadow=1;fontFamily=Times New Roman;labelBorderColor=none;strokeWidth=1;fontSize=12;" parent="1" source="ghngBfLgOj7lOZL47-MO-42" target="ghngBfLgOj7lOZL47-MO-45" edge="1">
          <mxGeometry relative="1" as="geometry" />
        </mxCell>
        <mxCell id="ghngBfLgOj7lOZL47-MO-42" value="Facebook&amp;nbsp;&lt;div style=&quot;font-size: 12px;&quot;&gt;Reset password&lt;/div&gt;" style="rounded=1;whiteSpace=wrap;html=1;shadow=1;fillColor=#cce5ff;strokeColor=#36393d;fontStyle=1;textShadow=0;fontFamily=Times New Roman;labelBorderColor=none;strokeWidth=1;fontSize=12;" parent="1" vertex="1">
          <mxGeometry x="160" y="1041" width="120" height="60" as="geometry" />
        </mxCell>
        <mxCell id="ghngBfLgOj7lOZL47-MO-125" style="edgeStyle=orthogonalEdgeStyle;rounded=0;orthogonalLoop=1;jettySize=auto;html=1;exitX=1;exitY=0.5;exitDx=0;exitDy=0;entryX=0;entryY=0.5;entryDx=0;entryDy=0;strokeColor=#0e8088;fontStyle=1;textShadow=0;shadow=1;fontFamily=Times New Roman;labelBorderColor=none;strokeWidth=1;fontSize=12;" parent="1" source="ghngBfLgOj7lOZL47-MO-43" target="ghngBfLgOj7lOZL47-MO-117" edge="1">
          <mxGeometry relative="1" as="geometry" />
        </mxCell>
        <mxCell id="ghngBfLgOj7lOZL47-MO-43" value="LinkedIn" style="rounded=1;whiteSpace=wrap;html=1;shadow=1;fillColor=#b0e3e6;strokeColor=#0e8088;fontStyle=1;textShadow=0;fontFamily=Times New Roman;labelBorderColor=none;strokeWidth=1;fontSize=12;" parent="1" vertex="1">
          <mxGeometry y="1820" width="120" height="60" as="geometry" />
        </mxCell>
        <mxCell id="ghngBfLgOj7lOZL47-MO-56" style="edgeStyle=orthogonalEdgeStyle;rounded=0;orthogonalLoop=1;jettySize=auto;html=1;exitX=0;exitY=0.5;exitDx=0;exitDy=0;entryX=0;entryY=0.5;entryDx=0;entryDy=0;fontStyle=1;textShadow=0;shadow=1;fontFamily=Times New Roman;labelBorderColor=none;strokeWidth=1;fontSize=12;" parent="1" source="ghngBfLgOj7lOZL47-MO-45" target="ghngBfLgOj7lOZL47-MO-46" edge="1">
          <mxGeometry relative="1" as="geometry" />
        </mxCell>
        <mxCell id="ghngBfLgOj7lOZL47-MO-57" style="edgeStyle=orthogonalEdgeStyle;rounded=0;orthogonalLoop=1;jettySize=auto;html=1;exitX=0;exitY=0.5;exitDx=0;exitDy=0;entryX=0;entryY=0.5;entryDx=0;entryDy=0;fontStyle=1;textShadow=0;shadow=1;fontFamily=Times New Roman;labelBorderColor=none;strokeWidth=1;fontSize=12;" parent="1" source="ghngBfLgOj7lOZL47-MO-45" target="ghngBfLgOj7lOZL47-MO-47" edge="1">
          <mxGeometry relative="1" as="geometry" />
        </mxCell>
        <mxCell id="ghngBfLgOj7lOZL47-MO-58" style="edgeStyle=orthogonalEdgeStyle;rounded=0;orthogonalLoop=1;jettySize=auto;html=1;exitX=0;exitY=0.5;exitDx=0;exitDy=0;entryX=0;entryY=0.5;entryDx=0;entryDy=0;fontStyle=1;textShadow=0;shadow=1;fontFamily=Times New Roman;labelBorderColor=none;strokeWidth=1;fontSize=12;" parent="1" source="ghngBfLgOj7lOZL47-MO-45" target="ghngBfLgOj7lOZL47-MO-55" edge="1">
          <mxGeometry relative="1" as="geometry" />
        </mxCell>
        <mxCell id="ghngBfLgOj7lOZL47-MO-72" style="edgeStyle=orthogonalEdgeStyle;rounded=0;orthogonalLoop=1;jettySize=auto;html=1;exitX=1;exitY=0.5;exitDx=0;exitDy=0;entryX=0;entryY=0.5;entryDx=0;entryDy=0;fontStyle=1;textShadow=0;shadow=1;fontFamily=Times New Roman;labelBorderColor=none;strokeWidth=1;fontSize=12;" parent="1" source="ghngBfLgOj7lOZL47-MO-45" target="ghngBfLgOj7lOZL47-MO-48" edge="1">
          <mxGeometry relative="1" as="geometry" />
        </mxCell>
        <mxCell id="ghngBfLgOj7lOZL47-MO-45" value="Facebook Profile" style="rounded=1;whiteSpace=wrap;html=1;shadow=1;fillColor=#cce5ff;strokeColor=#36393d;fontStyle=1;textShadow=0;fontFamily=Times New Roman;labelBorderColor=none;strokeWidth=1;fontSize=12;" parent="1" vertex="1">
          <mxGeometry x="330" y="1041" width="120" height="60" as="geometry" />
        </mxCell>
        <mxCell id="ghngBfLgOj7lOZL47-MO-46" value="UserID" style="rounded=1;whiteSpace=wrap;html=1;shadow=1;fillColor=#cce5ff;strokeColor=#36393d;fontStyle=1;textShadow=0;fontFamily=Times New Roman;labelBorderColor=none;strokeWidth=1;fontSize=12;" parent="1" vertex="1">
          <mxGeometry x="330" y="1141" width="120" height="60" as="geometry" />
        </mxCell>
        <mxCell id="ghngBfLgOj7lOZL47-MO-47" value="User Number" style="rounded=1;whiteSpace=wrap;html=1;shadow=1;fillColor=#cce5ff;strokeColor=#36393d;fontStyle=1;textShadow=0;fontFamily=Times New Roman;labelBorderColor=none;strokeWidth=1;fontSize=12;" parent="1" vertex="1">
          <mxGeometry x="330" y="1201" width="120" height="60" as="geometry" />
        </mxCell>
        <mxCell id="ghngBfLgOj7lOZL47-MO-59" style="edgeStyle=orthogonalEdgeStyle;rounded=0;orthogonalLoop=1;jettySize=auto;html=1;exitX=0;exitY=0.5;exitDx=0;exitDy=0;entryX=0;entryY=0.5;entryDx=0;entryDy=0;fontStyle=1;textShadow=0;shadow=1;fontFamily=Times New Roman;labelBorderColor=none;strokeWidth=1;fontSize=12;" parent="1" source="ghngBfLgOj7lOZL47-MO-48" target="ghngBfLgOj7lOZL47-MO-50" edge="1">
          <mxGeometry relative="1" as="geometry" />
        </mxCell>
        <mxCell id="ghngBfLgOj7lOZL47-MO-60" style="edgeStyle=orthogonalEdgeStyle;rounded=0;orthogonalLoop=1;jettySize=auto;html=1;exitX=0;exitY=0.5;exitDx=0;exitDy=0;entryX=0;entryY=0.5;entryDx=0;entryDy=0;fontStyle=1;textShadow=0;shadow=1;fontFamily=Times New Roman;labelBorderColor=none;strokeWidth=1;fontSize=12;" parent="1" source="ghngBfLgOj7lOZL47-MO-48" target="ghngBfLgOj7lOZL47-MO-51" edge="1">
          <mxGeometry relative="1" as="geometry" />
        </mxCell>
        <mxCell id="ghngBfLgOj7lOZL47-MO-61" style="edgeStyle=orthogonalEdgeStyle;rounded=0;orthogonalLoop=1;jettySize=auto;html=1;exitX=0;exitY=0.5;exitDx=0;exitDy=0;entryX=0;entryY=0.5;entryDx=0;entryDy=0;fontStyle=1;textShadow=0;shadow=1;fontFamily=Times New Roman;labelBorderColor=none;strokeWidth=1;fontSize=12;" parent="1" source="ghngBfLgOj7lOZL47-MO-48" target="ghngBfLgOj7lOZL47-MO-52" edge="1">
          <mxGeometry relative="1" as="geometry" />
        </mxCell>
        <mxCell id="ghngBfLgOj7lOZL47-MO-62" style="edgeStyle=orthogonalEdgeStyle;rounded=0;orthogonalLoop=1;jettySize=auto;html=1;exitX=0;exitY=0.5;exitDx=0;exitDy=0;entryX=0;entryY=0.5;entryDx=0;entryDy=0;fontStyle=1;textShadow=0;shadow=1;fontFamily=Times New Roman;labelBorderColor=none;strokeWidth=1;fontSize=12;" parent="1" source="ghngBfLgOj7lOZL47-MO-48" target="ghngBfLgOj7lOZL47-MO-53" edge="1">
          <mxGeometry relative="1" as="geometry" />
        </mxCell>
        <mxCell id="ghngBfLgOj7lOZL47-MO-63" style="edgeStyle=orthogonalEdgeStyle;rounded=0;orthogonalLoop=1;jettySize=auto;html=1;exitX=0;exitY=0.5;exitDx=0;exitDy=0;entryX=0;entryY=0.5;entryDx=0;entryDy=0;fontStyle=1;textShadow=0;shadow=1;fontFamily=Times New Roman;labelBorderColor=none;strokeWidth=1;fontSize=12;" parent="1" source="ghngBfLgOj7lOZL47-MO-48" target="ghngBfLgOj7lOZL47-MO-54" edge="1">
          <mxGeometry relative="1" as="geometry" />
        </mxCell>
        <mxCell id="ghngBfLgOj7lOZL47-MO-107" style="edgeStyle=orthogonalEdgeStyle;rounded=0;orthogonalLoop=1;jettySize=auto;html=1;exitX=0;exitY=0.5;exitDx=0;exitDy=0;entryX=0;entryY=0.5;entryDx=0;entryDy=0;fontStyle=1;textShadow=0;shadow=1;fontFamily=Times New Roman;labelBorderColor=none;strokeWidth=1;fontSize=12;" parent="1" source="ghngBfLgOj7lOZL47-MO-48" target="ghngBfLgOj7lOZL47-MO-106" edge="1">
          <mxGeometry relative="1" as="geometry" />
        </mxCell>
        <mxCell id="ghngBfLgOj7lOZL47-MO-109" style="edgeStyle=orthogonalEdgeStyle;rounded=0;orthogonalLoop=1;jettySize=auto;html=1;exitX=0;exitY=0.5;exitDx=0;exitDy=0;entryX=0;entryY=0.5;entryDx=0;entryDy=0;fontStyle=1;textShadow=0;shadow=1;fontFamily=Times New Roman;labelBorderColor=none;strokeWidth=1;fontSize=12;" parent="1" source="ghngBfLgOj7lOZL47-MO-48" target="ghngBfLgOj7lOZL47-MO-108" edge="1">
          <mxGeometry relative="1" as="geometry" />
        </mxCell>
        <mxCell id="ghngBfLgOj7lOZL47-MO-48" value="FB Objects" style="rounded=1;whiteSpace=wrap;html=1;shadow=1;fillColor=#cce5ff;strokeColor=#36393d;fontStyle=1;textShadow=0;fontFamily=Times New Roman;labelBorderColor=none;strokeWidth=1;fontSize=12;" parent="1" vertex="1">
          <mxGeometry x="500" y="1041" width="120" height="60" as="geometry" />
        </mxCell>
        <mxCell id="ghngBfLgOj7lOZL47-MO-50" value="Comments" style="rounded=1;whiteSpace=wrap;html=1;shadow=1;fillColor=#cce5ff;strokeColor=#36393d;fontStyle=1;textShadow=0;fontFamily=Times New Roman;labelBorderColor=none;strokeWidth=1;fontSize=12;" parent="1" vertex="1">
          <mxGeometry x="500" y="1141" width="120" height="60" as="geometry" />
        </mxCell>
        <mxCell id="ghngBfLgOj7lOZL47-MO-51" value="Interactions" style="rounded=1;whiteSpace=wrap;html=1;shadow=1;fillColor=#cce5ff;strokeColor=#36393d;fontStyle=1;textShadow=0;fontFamily=Times New Roman;labelBorderColor=none;strokeWidth=1;fontSize=12;" parent="1" vertex="1">
          <mxGeometry x="500" y="1201" width="120" height="60" as="geometry" />
        </mxCell>
        <mxCell id="ghngBfLgOj7lOZL47-MO-52" value="Photos" style="rounded=1;whiteSpace=wrap;html=1;shadow=1;fillColor=#cce5ff;strokeColor=#36393d;fontStyle=1;textShadow=0;fontFamily=Times New Roman;labelBorderColor=none;strokeWidth=1;fontSize=12;" parent="1" vertex="1">
          <mxGeometry x="500" y="1261" width="120" height="60" as="geometry" />
        </mxCell>
        <mxCell id="ghngBfLgOj7lOZL47-MO-53" value="Video" style="rounded=1;whiteSpace=wrap;html=1;shadow=1;fillColor=#cce5ff;strokeColor=#36393d;fontStyle=1;textShadow=0;fontFamily=Times New Roman;labelBorderColor=none;strokeWidth=1;fontSize=12;" parent="1" vertex="1">
          <mxGeometry x="500.62" y="1321" width="120" height="60" as="geometry" />
        </mxCell>
        <mxCell id="ghngBfLgOj7lOZL47-MO-54" value="Posts" style="rounded=1;whiteSpace=wrap;html=1;shadow=1;fillColor=#cce5ff;strokeColor=#36393d;fontStyle=1;textShadow=0;fontFamily=Times New Roman;labelBorderColor=none;strokeWidth=1;fontSize=12;" parent="1" vertex="1">
          <mxGeometry x="500.62" y="1381" width="120" height="60" as="geometry" />
        </mxCell>
        <mxCell id="ghngBfLgOj7lOZL47-MO-55" value="Username" style="rounded=1;whiteSpace=wrap;html=1;shadow=1;fillColor=#cce5ff;strokeColor=#36393d;fontStyle=1;textShadow=0;fontFamily=Times New Roman;labelBorderColor=none;strokeWidth=1;fontSize=12;" parent="1" vertex="1">
          <mxGeometry x="330" y="1261" width="120" height="60" as="geometry" />
        </mxCell>
        <mxCell id="ghngBfLgOj7lOZL47-MO-70" style="edgeStyle=orthogonalEdgeStyle;rounded=0;orthogonalLoop=1;jettySize=auto;html=1;exitX=0.5;exitY=0;exitDx=0;exitDy=0;entryX=0.602;entryY=0.007;entryDx=0;entryDy=0;entryPerimeter=0;fontStyle=1;textShadow=0;shadow=1;fontFamily=Times New Roman;labelBorderColor=none;strokeWidth=1;fontSize=12;" parent="1" source="ghngBfLgOj7lOZL47-MO-37" target="ghngBfLgOj7lOZL47-MO-48" edge="1">
          <mxGeometry relative="1" as="geometry" />
        </mxCell>
        <mxCell id="ghngBfLgOj7lOZL47-MO-73" value="Tweets" style="rounded=1;whiteSpace=wrap;html=1;shadow=1;fillColor=#f5f5f5;gradientColor=#b3b3b3;strokeColor=#666666;fontStyle=1;textShadow=0;fontFamily=Times New Roman;labelBorderColor=none;strokeWidth=1;fontSize=12;" parent="1" vertex="1">
          <mxGeometry x="160" y="1590" width="120" height="60" as="geometry" />
        </mxCell>
        <mxCell id="ghngBfLgOj7lOZL47-MO-164" style="edgeStyle=orthogonalEdgeStyle;rounded=0;orthogonalLoop=1;jettySize=auto;html=1;exitX=0.5;exitY=1;exitDx=0;exitDy=0;entryX=0.5;entryY=0;entryDx=0;entryDy=0;fontFamily=Times New Roman;labelBorderColor=none;textShadow=0;shadow=1;strokeWidth=1;fontStyle=1;fontSize=12;" parent="1" source="ghngBfLgOj7lOZL47-MO-74" target="ghngBfLgOj7lOZL47-MO-90" edge="1">
          <mxGeometry relative="1" as="geometry" />
        </mxCell>
        <mxCell id="ghngBfLgOj7lOZL47-MO-74" value="Archive / Deleted Tweets" style="rounded=1;whiteSpace=wrap;html=1;shadow=1;fillColor=#f5f5f5;gradientColor=#b3b3b3;strokeColor=#666666;fontStyle=1;textShadow=0;fontFamily=Times New Roman;labelBorderColor=none;strokeWidth=1;fontSize=12;" parent="1" vertex="1">
          <mxGeometry x="330" y="1590" width="120" height="60" as="geometry" />
        </mxCell>
        <mxCell id="ghngBfLgOj7lOZL47-MO-165" style="edgeStyle=orthogonalEdgeStyle;rounded=0;orthogonalLoop=1;jettySize=auto;html=1;exitX=0.5;exitY=1;exitDx=0;exitDy=0;entryX=0.5;entryY=0;entryDx=0;entryDy=0;fontFamily=Times New Roman;labelBorderColor=none;textShadow=0;shadow=1;strokeWidth=1;fontStyle=1;fontSize=12;" parent="1" source="ghngBfLgOj7lOZL47-MO-75" target="ghngBfLgOj7lOZL47-MO-92" edge="1">
          <mxGeometry relative="1" as="geometry" />
        </mxCell>
        <mxCell id="ghngBfLgOj7lOZL47-MO-75" value="Pictures" style="rounded=1;whiteSpace=wrap;html=1;shadow=1;fillColor=#f5f5f5;gradientColor=#b3b3b3;strokeColor=#666666;fontStyle=1;textShadow=0;fontFamily=Times New Roman;labelBorderColor=none;strokeWidth=1;fontSize=12;" parent="1" vertex="1">
          <mxGeometry x="490" y="1590" width="120" height="60" as="geometry" />
        </mxCell>
        <mxCell id="ghngBfLgOj7lOZL47-MO-85" value="&lt;div style=&quot;font-size: 12px;&quot;&gt;&lt;div style=&quot;font-size: 12px;&quot;&gt;&lt;div style=&quot;text-align: center; font-size: 12px;&quot;&gt;Example&amp;nbsp;&lt;/div&gt;&lt;div style=&quot;font-size: 12px;&quot;&gt;1. https://findmyfbid.com&lt;/div&gt;&lt;div style=&quot;font-size: 12px;&quot;&gt;2. https://www.facebook.com/public?query=email@gmail.com&amp;amp;nomc=0&lt;/div&gt;&lt;div style=&quot;font-size: 12px;&quot;&gt;3. https://www.facebook.com/login/identify?ctx=recover&lt;/div&gt;&lt;div style=&quot;font-size: 12px;&quot;&gt;4. https://searchisback.com&lt;/div&gt;&lt;div style=&quot;font-size: 12px;&quot;&gt;5. https://www.facebook.com/livemap&lt;/div&gt;&lt;div style=&quot;font-size: 12px;&quot;&gt;6. https://stalkscan.com/en&lt;/div&gt;&lt;div style=&quot;font-size: 12px;&quot;&gt;7. https://lookup-id.com&lt;/div&gt;&lt;div style=&quot;font-size: 12px;&quot;&gt;&lt;br style=&quot;font-size: 12px;&quot;&gt;&lt;/div&gt;&lt;/div&gt;&lt;/div&gt;" style="rounded=1;whiteSpace=wrap;html=1;align=left;perimeterSpacing=0;strokeWidth=1;spacingLeft=3;shadow=1;fontSize=12;glass=1;fillColor=#cce5ff;strokeColor=#36393d;fontStyle=1;textShadow=0;fontFamily=Times New Roman;labelBorderColor=none;" parent="1" vertex="1">
          <mxGeometry y="1161" width="260" height="169" as="geometry" />
        </mxCell>
        <mxCell id="ghngBfLgOj7lOZL47-MO-87" value="&lt;div style=&quot;font-size: 12px;&quot;&gt;&lt;div style=&quot;font-size: 12px;&quot;&gt;&lt;div style=&quot;font-size: 12px;&quot;&gt;&lt;div style=&quot;text-align: center; font-size: 12px;&quot;&gt;Example&lt;/div&gt;&lt;div style=&quot;font-size: 12px;&quot;&gt;1. https://pdevesian.eu/tet&lt;/div&gt;&lt;div style=&quot;font-size: 12px;&quot;&gt;2. https://twoogel.com&lt;/div&gt;&lt;div style=&quot;font-size: 12px;&quot;&gt;3. https://tweeterid.com&lt;/div&gt;&lt;div style=&quot;font-size: 12px;&quot;&gt;4. https://backtweets.com&lt;/div&gt;&lt;div style=&quot;font-size: 12px;&quot;&gt;&lt;br style=&quot;font-size: 12px;&quot;&gt;&lt;/div&gt;&lt;/div&gt;&lt;/div&gt;&lt;/div&gt;" style="rounded=1;whiteSpace=wrap;html=1;align=left;perimeterSpacing=0;strokeWidth=1;spacingLeft=3;shadow=1;fontSize=12;glass=1;fillColor=#f5f5f5;strokeColor=#666666;gradientColor=#b3b3b3;fontStyle=1;textShadow=0;fontFamily=Times New Roman;labelBorderColor=none;" parent="1" vertex="1">
          <mxGeometry y="1690" width="170" height="100" as="geometry" />
        </mxCell>
        <mxCell id="ghngBfLgOj7lOZL47-MO-88" style="edgeStyle=orthogonalEdgeStyle;rounded=0;orthogonalLoop=1;jettySize=auto;html=1;exitX=0.5;exitY=1;exitDx=0;exitDy=0;entryX=0.465;entryY=-0.009;entryDx=0;entryDy=0;entryPerimeter=0;fontStyle=1;textShadow=0;shadow=1;fontFamily=Times New Roman;labelBorderColor=none;strokeWidth=1;fontSize=12;" parent="1" source="ghngBfLgOj7lOZL47-MO-38" target="ghngBfLgOj7lOZL47-MO-87" edge="1">
          <mxGeometry relative="1" as="geometry" />
        </mxCell>
        <mxCell id="ghngBfLgOj7lOZL47-MO-90" value="&lt;div style=&quot;font-size: 12px;&quot;&gt;&lt;div style=&quot;font-size: 12px;&quot;&gt;&lt;div style=&quot;font-size: 12px;&quot;&gt;&lt;div style=&quot;text-align: center; font-size: 12px;&quot;&gt;Example&lt;/div&gt;&lt;div style=&quot;font-size: 12px;&quot;&gt;1. https://www.allmytweets.net/connect&lt;/div&gt;&lt;div style=&quot;font-size: 12px;&quot;&gt;&lt;span style=&quot;background-color: initial; font-size: 12px;&quot;&gt;2. https://deadbird.site&lt;/span&gt;&lt;/div&gt;&lt;/div&gt;&lt;/div&gt;&lt;/div&gt;" style="rounded=1;whiteSpace=wrap;html=1;align=left;perimeterSpacing=0;strokeWidth=1;spacingLeft=3;shadow=1;fontSize=12;glass=1;fillColor=#f5f5f5;strokeColor=#666666;gradientColor=#b3b3b3;fontStyle=1;textShadow=0;fontFamily=Times New Roman;labelBorderColor=none;" parent="1" vertex="1">
          <mxGeometry x="220" y="1690" width="240" height="70" as="geometry" />
        </mxCell>
        <mxCell id="ghngBfLgOj7lOZL47-MO-92" value="&lt;div style=&quot;font-size: 12px;&quot;&gt;&lt;div style=&quot;font-size: 12px;&quot;&gt;&lt;div style=&quot;text-align: center; font-size: 12px;&quot;&gt;Example&lt;/div&gt;&lt;div style=&quot;font-size: 12px;&quot;&gt;1. https://twicsy.com&lt;/div&gt;&lt;/div&gt;&lt;/div&gt;" style="rounded=1;whiteSpace=wrap;html=1;align=left;perimeterSpacing=0;strokeWidth=1;spacingLeft=3;shadow=1;fontSize=12;glass=1;fillColor=#f5f5f5;strokeColor=#666666;gradientColor=#b3b3b3;fontStyle=1;textShadow=0;fontFamily=Times New Roman;labelBorderColor=none;" parent="1" vertex="1">
          <mxGeometry x="482.5" y="1700" width="135" height="40" as="geometry" />
        </mxCell>
        <mxCell id="ghngBfLgOj7lOZL47-MO-106" value="Events" style="rounded=1;whiteSpace=wrap;html=1;shadow=1;fillColor=#cce5ff;strokeColor=#36393d;fontStyle=1;textShadow=0;fontFamily=Times New Roman;labelBorderColor=none;strokeWidth=1;fontSize=12;" parent="1" vertex="1">
          <mxGeometry x="500.62" y="1430" width="120" height="60" as="geometry" />
        </mxCell>
        <mxCell id="ghngBfLgOj7lOZL47-MO-108" value="Groups" style="rounded=1;whiteSpace=wrap;html=1;shadow=1;fillColor=#cce5ff;strokeColor=#36393d;fontStyle=1;textShadow=0;fontFamily=Times New Roman;labelBorderColor=none;strokeWidth=1;fontSize=12;" parent="1" vertex="1">
          <mxGeometry x="500" y="1490" width="120" height="60" as="geometry" />
        </mxCell>
        <mxCell id="ghngBfLgOj7lOZL47-MO-110" style="edgeStyle=orthogonalEdgeStyle;rounded=0;orthogonalLoop=1;jettySize=auto;html=1;exitX=0;exitY=0.5;exitDx=0;exitDy=0;entryX=0;entryY=0.5;entryDx=0;entryDy=0;fillColor=#b0e3e6;strokeColor=#0e8088;fontStyle=1;textShadow=0;shadow=1;fontFamily=Times New Roman;labelBorderColor=none;strokeWidth=1;fontSize=12;" parent="1" source="ghngBfLgOj7lOZL47-MO-117" target="ghngBfLgOj7lOZL47-MO-118" edge="1">
          <mxGeometry relative="1" as="geometry" />
        </mxCell>
        <mxCell id="ghngBfLgOj7lOZL47-MO-111" style="edgeStyle=orthogonalEdgeStyle;rounded=0;orthogonalLoop=1;jettySize=auto;html=1;exitX=0;exitY=0.5;exitDx=0;exitDy=0;entryX=0;entryY=0.5;entryDx=0;entryDy=0;fillColor=#b0e3e6;strokeColor=#0e8088;fontStyle=1;textShadow=0;shadow=1;fontFamily=Times New Roman;labelBorderColor=none;strokeWidth=1;fontSize=12;" parent="1" source="ghngBfLgOj7lOZL47-MO-117" target="ghngBfLgOj7lOZL47-MO-119" edge="1">
          <mxGeometry relative="1" as="geometry" />
        </mxCell>
        <mxCell id="ghngBfLgOj7lOZL47-MO-112" style="edgeStyle=orthogonalEdgeStyle;rounded=0;orthogonalLoop=1;jettySize=auto;html=1;exitX=0;exitY=0.5;exitDx=0;exitDy=0;entryX=0;entryY=0.5;entryDx=0;entryDy=0;fillColor=#b0e3e6;strokeColor=#0e8088;fontStyle=1;textShadow=0;shadow=1;fontFamily=Times New Roman;labelBorderColor=none;strokeWidth=1;fontSize=12;" parent="1" source="ghngBfLgOj7lOZL47-MO-117" target="ghngBfLgOj7lOZL47-MO-120" edge="1">
          <mxGeometry relative="1" as="geometry" />
        </mxCell>
        <mxCell id="ghngBfLgOj7lOZL47-MO-113" style="edgeStyle=orthogonalEdgeStyle;rounded=0;orthogonalLoop=1;jettySize=auto;html=1;exitX=0;exitY=0.5;exitDx=0;exitDy=0;entryX=0;entryY=0.5;entryDx=0;entryDy=0;fillColor=#b0e3e6;strokeColor=#0e8088;fontStyle=1;textShadow=0;shadow=1;fontFamily=Times New Roman;labelBorderColor=none;strokeWidth=1;fontSize=12;" parent="1" source="ghngBfLgOj7lOZL47-MO-117" target="ghngBfLgOj7lOZL47-MO-121" edge="1">
          <mxGeometry relative="1" as="geometry" />
        </mxCell>
        <mxCell id="ghngBfLgOj7lOZL47-MO-114" style="edgeStyle=orthogonalEdgeStyle;rounded=0;orthogonalLoop=1;jettySize=auto;html=1;exitX=0;exitY=0.5;exitDx=0;exitDy=0;entryX=0;entryY=0.5;entryDx=0;entryDy=0;fillColor=#b0e3e6;strokeColor=#0e8088;fontStyle=1;textShadow=0;shadow=1;fontFamily=Times New Roman;labelBorderColor=none;strokeWidth=1;fontSize=12;" parent="1" source="ghngBfLgOj7lOZL47-MO-117" target="ghngBfLgOj7lOZL47-MO-122" edge="1">
          <mxGeometry relative="1" as="geometry" />
        </mxCell>
        <mxCell id="ghngBfLgOj7lOZL47-MO-115" style="edgeStyle=orthogonalEdgeStyle;rounded=0;orthogonalLoop=1;jettySize=auto;html=1;exitX=0;exitY=0.5;exitDx=0;exitDy=0;entryX=0;entryY=0.5;entryDx=0;entryDy=0;fillColor=#b0e3e6;strokeColor=#0e8088;fontStyle=1;textShadow=0;shadow=1;fontFamily=Times New Roman;labelBorderColor=none;strokeWidth=1;fontSize=12;" parent="1" source="ghngBfLgOj7lOZL47-MO-117" target="ghngBfLgOj7lOZL47-MO-123" edge="1">
          <mxGeometry relative="1" as="geometry" />
        </mxCell>
        <mxCell id="ghngBfLgOj7lOZL47-MO-116" style="edgeStyle=orthogonalEdgeStyle;rounded=0;orthogonalLoop=1;jettySize=auto;html=1;exitX=0;exitY=0.5;exitDx=0;exitDy=0;entryX=0;entryY=0.5;entryDx=0;entryDy=0;fillColor=#b0e3e6;strokeColor=#0e8088;fontStyle=1;textShadow=0;shadow=1;fontFamily=Times New Roman;labelBorderColor=none;strokeWidth=1;fontSize=12;" parent="1" source="ghngBfLgOj7lOZL47-MO-117" target="ghngBfLgOj7lOZL47-MO-124" edge="1">
          <mxGeometry relative="1" as="geometry" />
        </mxCell>
        <mxCell id="ghngBfLgOj7lOZL47-MO-129" style="edgeStyle=orthogonalEdgeStyle;rounded=0;orthogonalLoop=1;jettySize=auto;html=1;exitX=0;exitY=0.5;exitDx=0;exitDy=0;entryX=0;entryY=0.5;entryDx=0;entryDy=0;strokeColor=#0E8088;fontStyle=1;textShadow=0;shadow=1;fontFamily=Times New Roman;labelBorderColor=none;strokeWidth=1;fontSize=12;" parent="1" source="ghngBfLgOj7lOZL47-MO-117" target="ghngBfLgOj7lOZL47-MO-126" edge="1">
          <mxGeometry relative="1" as="geometry" />
        </mxCell>
        <mxCell id="ghngBfLgOj7lOZL47-MO-130" style="edgeStyle=orthogonalEdgeStyle;rounded=0;orthogonalLoop=1;jettySize=auto;html=1;exitX=0;exitY=0.5;exitDx=0;exitDy=0;entryX=0;entryY=0.5;entryDx=0;entryDy=0;strokeColor=#0E8088;fontStyle=1;textShadow=0;shadow=1;fontFamily=Times New Roman;labelBorderColor=none;strokeWidth=1;fontSize=12;" parent="1" source="ghngBfLgOj7lOZL47-MO-117" target="ghngBfLgOj7lOZL47-MO-127" edge="1">
          <mxGeometry relative="1" as="geometry" />
        </mxCell>
        <mxCell id="ghngBfLgOj7lOZL47-MO-117" value="LinkedIn Objects" style="rounded=1;whiteSpace=wrap;html=1;shadow=1;fillColor=#b0e3e6;strokeColor=#0e8088;fontStyle=1;textShadow=0;fontFamily=Times New Roman;labelBorderColor=none;strokeWidth=1;fontSize=12;" parent="1" vertex="1">
          <mxGeometry x="180" y="1820" width="120" height="60" as="geometry" />
        </mxCell>
        <mxCell id="ghngBfLgOj7lOZL47-MO-118" value="Comments" style="rounded=1;whiteSpace=wrap;html=1;shadow=1;fillColor=#b0e3e6;strokeColor=#0e8088;fontStyle=1;textShadow=0;fontFamily=Times New Roman;labelBorderColor=none;strokeWidth=1;fontSize=12;" parent="1" vertex="1">
          <mxGeometry x="180" y="1920" width="120" height="60" as="geometry" />
        </mxCell>
        <mxCell id="ghngBfLgOj7lOZL47-MO-119" value="Interactions" style="rounded=1;whiteSpace=wrap;html=1;shadow=1;fillColor=#b0e3e6;strokeColor=#0e8088;fontStyle=1;textShadow=0;fontFamily=Times New Roman;labelBorderColor=none;strokeWidth=1;fontSize=12;" parent="1" vertex="1">
          <mxGeometry x="180" y="1980" width="120" height="60" as="geometry" />
        </mxCell>
        <mxCell id="ghngBfLgOj7lOZL47-MO-120" value="Photos" style="rounded=1;whiteSpace=wrap;html=1;shadow=1;fillColor=#b0e3e6;strokeColor=#0e8088;fontStyle=1;textShadow=0;fontFamily=Times New Roman;labelBorderColor=none;strokeWidth=1;fontSize=12;" parent="1" vertex="1">
          <mxGeometry x="180" y="2040" width="120" height="60" as="geometry" />
        </mxCell>
        <mxCell id="ghngBfLgOj7lOZL47-MO-121" value="Video" style="rounded=1;whiteSpace=wrap;html=1;shadow=1;fillColor=#b0e3e6;strokeColor=#0e8088;fontStyle=1;textShadow=0;fontFamily=Times New Roman;labelBorderColor=none;strokeWidth=1;fontSize=12;" parent="1" vertex="1">
          <mxGeometry x="180" y="2100" width="120" height="60" as="geometry" />
        </mxCell>
        <mxCell id="ghngBfLgOj7lOZL47-MO-122" value="Posts" style="rounded=1;whiteSpace=wrap;html=1;shadow=1;fillColor=#b0e3e6;strokeColor=#0e8088;fontStyle=1;textShadow=0;fontFamily=Times New Roman;labelBorderColor=none;strokeWidth=1;fontSize=12;" parent="1" vertex="1">
          <mxGeometry x="180" y="2160" width="120" height="60" as="geometry" />
        </mxCell>
        <mxCell id="ghngBfLgOj7lOZL47-MO-123" value="Events" style="rounded=1;whiteSpace=wrap;html=1;shadow=1;fillColor=#b0e3e6;strokeColor=#0e8088;fontStyle=1;textShadow=0;fontFamily=Times New Roman;labelBorderColor=none;strokeWidth=1;fontSize=12;" parent="1" vertex="1">
          <mxGeometry x="180" y="2220" width="120" height="60" as="geometry" />
        </mxCell>
        <mxCell id="ghngBfLgOj7lOZL47-MO-124" value="Groups" style="rounded=1;whiteSpace=wrap;html=1;shadow=1;fillColor=#b0e3e6;strokeColor=#0e8088;fontStyle=1;textShadow=0;fontFamily=Times New Roman;labelBorderColor=none;strokeWidth=1;fontSize=12;" parent="1" vertex="1">
          <mxGeometry x="180" y="2280" width="120" height="60" as="geometry" />
        </mxCell>
        <mxCell id="ghngBfLgOj7lOZL47-MO-126" value="Courses/ Certificates" style="rounded=1;whiteSpace=wrap;html=1;shadow=1;fillColor=#b0e3e6;strokeColor=#0e8088;fontStyle=1;textShadow=0;fontFamily=Times New Roman;labelBorderColor=none;strokeWidth=1;fontSize=12;" parent="1" vertex="1">
          <mxGeometry x="180" y="2340" width="120" height="60" as="geometry" />
        </mxCell>
        <mxCell id="ghngBfLgOj7lOZL47-MO-127" value="Resume / CV" style="rounded=1;whiteSpace=wrap;html=1;shadow=1;fillColor=#b0e3e6;strokeColor=#0e8088;fontStyle=1;textShadow=0;fontFamily=Times New Roman;labelBorderColor=none;strokeWidth=1;fontSize=12;" parent="1" vertex="1">
          <mxGeometry x="180" y="2400" width="120" height="60" as="geometry" />
        </mxCell>
        <mxCell id="ghngBfLgOj7lOZL47-MO-131" value="&lt;div style=&quot;font-size: 12px;&quot;&gt;Authors&lt;/div&gt;&lt;div style=&quot;font-size: 12px;&quot;&gt;Mostafa Maher&lt;/div&gt;" style="text;html=1;align=center;verticalAlign=middle;whiteSpace=wrap;rounded=1;fillColor=#d5e8d4;strokeColor=#82b366;shadow=1;glass=1;fontStyle=1;textShadow=0;fontFamily=Times New Roman;labelBorderColor=none;strokeWidth=1;fontSize=12;" parent="1" vertex="1">
          <mxGeometry x="1289.38" y="15" width="270" height="70" as="geometry" />
        </mxCell>
        <mxCell id="ghngBfLgOj7lOZL47-MO-132" value="&lt;div style=&quot;font-size: 12px;&quot;&gt;V1.0&amp;nbsp;&lt;/div&gt;&lt;div style=&quot;font-size: 12px;&quot;&gt;07/11/2024&lt;/div&gt;" style="text;html=1;align=center;verticalAlign=middle;whiteSpace=wrap;rounded=1;fillColor=#d5e8d4;strokeColor=#82b366;shadow=1;glass=1;fontStyle=1;textShadow=0;fontFamily=Times New Roman;labelBorderColor=none;strokeWidth=1;fontSize=12;" parent="1" vertex="1">
          <mxGeometry y="20" width="270" height="70" as="geometry" />
        </mxCell>
        <mxCell id="ghngBfLgOj7lOZL47-MO-136" style="edgeStyle=orthogonalEdgeStyle;rounded=0;orthogonalLoop=1;jettySize=auto;html=1;exitX=0.5;exitY=1;exitDx=0;exitDy=0;entryX=0.5;entryY=0;entryDx=0;entryDy=0;fontStyle=1;textShadow=0;shadow=1;fontFamily=Times New Roman;labelBorderColor=none;strokeWidth=1;fontSize=12;" parent="1" source="ghngBfLgOj7lOZL47-MO-133" target="ghngBfLgOj7lOZL47-MO-135" edge="1">
          <mxGeometry relative="1" as="geometry" />
        </mxCell>
        <mxCell id="ghngBfLgOj7lOZL47-MO-133" value="Dating" style="rounded=1;whiteSpace=wrap;html=1;shadow=1;fillColor=#fff2cc;strokeColor=#d6b656;glass=1;fontSize=12;fontStyle=1;textShadow=0;fontFamily=Times New Roman;labelBorderColor=none;strokeWidth=1;" parent="1" vertex="1">
          <mxGeometry x="1400" y="240" width="120" height="60" as="geometry" />
        </mxCell>
        <mxCell id="ghngBfLgOj7lOZL47-MO-135" value="&lt;div style=&quot;font-size: 12px;&quot;&gt;&lt;div style=&quot;font-size: 12px;&quot;&gt;&lt;div style=&quot;font-size: 12px;&quot;&gt;&lt;div style=&quot;font-size: 12px;&quot;&gt;&lt;div style=&quot;text-align: center; font-size: 12px;&quot;&gt;Example&lt;/div&gt;&lt;div style=&quot;font-size: 12px;&quot;&gt;1. https://www.match.com&lt;/div&gt;&lt;div style=&quot;font-size: 12px;&quot;&gt;2. https://www.ayi.com/index.php&lt;/div&gt;&lt;div style=&quot;font-size: 12px;&quot;&gt;3. https://www.pof.com&lt;/div&gt;&lt;div style=&quot;font-size: 12px;&quot;&gt;4. https://tinder.com&lt;/div&gt;&lt;div style=&quot;font-size: 12px;&quot;&gt;5. https://bumble.com&lt;/div&gt;&lt;div style=&quot;font-size: 12px;&quot;&gt;6. https://www.meetup.com&lt;/div&gt;&lt;/div&gt;&lt;/div&gt;&lt;/div&gt;&lt;/div&gt;" style="rounded=1;whiteSpace=wrap;html=1;align=left;perimeterSpacing=0;strokeWidth=1;spacingLeft=4;shadow=1;fontSize=12;glass=1;fillColor=#eeeeee;strokeColor=#36393d;fontStyle=1;textShadow=0;fontFamily=Times New Roman;labelBorderColor=none;" parent="1" vertex="1">
          <mxGeometry x="1360.63" y="396" width="198.75" height="130" as="geometry" />
        </mxCell>
        <mxCell id="ghngBfLgOj7lOZL47-MO-137" value="&lt;div style=&quot;font-size: 12px;&quot;&gt;&lt;div style=&quot;font-size: 12px;&quot;&gt;&lt;div style=&quot;font-size: 12px;&quot;&gt;&lt;div style=&quot;text-align: center; font-size: 12px;&quot;&gt;&lt;span style=&quot;font-size: 12px;&quot;&gt;Example&lt;/span&gt;&lt;/div&gt;&lt;div style=&quot;font-size: 12px;&quot;&gt;&lt;div style=&quot;font-size: 12px;&quot;&gt;1. https://whatsmyname.app&lt;/div&gt;&lt;div style=&quot;font-size: 12px;&quot;&gt;2. https://namechk.com&lt;/div&gt;&lt;div style=&quot;font-size: 12px;&quot;&gt;3. https://usersearch.org&lt;/div&gt;&lt;div style=&quot;font-size: 12px;&quot;&gt;4. https://namesdir.com&lt;/div&gt;&lt;div style=&quot;font-size: 12px;&quot;&gt;5. https://instantusername.com&lt;/div&gt;&lt;div style=&quot;font-size: 12px;&quot;&gt;6. https://www.namecheckr.com&lt;/div&gt;&lt;div style=&quot;font-size: 12px;&quot;&gt;7. https://www.aware-online.com/en/osint-tools/username-search-tool/&lt;/div&gt;&lt;div style=&quot;font-size: 12px;&quot;&gt;8. https://knowem.com&lt;/div&gt;&lt;div style=&quot;font-size: 12px;&quot;&gt;9. https://namevine.com&lt;/div&gt;&lt;/div&gt;&lt;/div&gt;&lt;/div&gt;&lt;/div&gt;" style="rounded=1;whiteSpace=wrap;html=1;align=left;perimeterSpacing=0;strokeWidth=1;spacingLeft=4;shadow=1;fontSize=12;glass=1;fillColor=#eeeeee;strokeColor=#36393d;fontStyle=1;textShadow=0;fontFamily=Times New Roman;labelBorderColor=none;" parent="1" vertex="1">
          <mxGeometry x="495.31" y="396" width="189.38" height="250" as="geometry" />
        </mxCell>
        <mxCell id="dho65S2ZdlVvDXCPowKT-3" style="edgeStyle=orthogonalEdgeStyle;rounded=0;orthogonalLoop=1;jettySize=auto;html=1;exitX=0;exitY=0.5;exitDx=0;exitDy=0;entryX=0;entryY=0.5;entryDx=0;entryDy=0;shadow=1;strokeWidth=1;fontSize=12;fontFamily=Times New Roman;" edge="1" parent="1" source="ghngBfLgOj7lOZL47-MO-139" target="ghngBfLgOj7lOZL47-MO-146">
          <mxGeometry relative="1" as="geometry">
            <Array as="points">
              <mxPoint x="720" y="426" />
              <mxPoint x="720" y="521" />
            </Array>
          </mxGeometry>
        </mxCell>
        <mxCell id="ghngBfLgOj7lOZL47-MO-139" value="Reverse Image" style="whiteSpace=wrap;html=1;fillColor=#eeeeee;strokeColor=#36393d;rounded=1;shadow=1;glass=1;fontStyle=1;strokeWidth=1;align=left;verticalAlign=middle;spacingLeft=4;fontFamily=Times New Roman;fontSize=12;fontColor=default;labelBorderColor=none;textShadow=0;" parent="1" vertex="1">
          <mxGeometry x="730" y="396" width="120" height="60" as="geometry" />
        </mxCell>
        <mxCell id="dho65S2ZdlVvDXCPowKT-5" style="edgeStyle=orthogonalEdgeStyle;rounded=0;orthogonalLoop=1;jettySize=auto;html=1;exitX=0;exitY=0.5;exitDx=0;exitDy=0;entryX=0;entryY=0.5;entryDx=0;entryDy=0;shadow=1;strokeWidth=1;fontSize=12;fontFamily=Times New Roman;" edge="1" parent="1" source="ghngBfLgOj7lOZL47-MO-141" target="ghngBfLgOj7lOZL47-MO-148">
          <mxGeometry relative="1" as="geometry">
            <Array as="points">
              <mxPoint x="720" y="626" />
              <mxPoint x="720" y="725" />
            </Array>
          </mxGeometry>
        </mxCell>
        <mxCell id="ghngBfLgOj7lOZL47-MO-141" value="Similar Image" style="whiteSpace=wrap;html=1;fillColor=#eeeeee;strokeColor=#36393d;rounded=1;shadow=1;glass=1;fontStyle=1;strokeWidth=1;align=left;verticalAlign=middle;spacingLeft=4;fontFamily=Times New Roman;fontSize=12;fontColor=default;labelBorderColor=none;textShadow=0;" parent="1" vertex="1">
          <mxGeometry x="730" y="596" width="120" height="60" as="geometry" />
        </mxCell>
        <mxCell id="ghngBfLgOj7lOZL47-MO-174" style="edgeStyle=orthogonalEdgeStyle;rounded=0;orthogonalLoop=1;jettySize=auto;html=1;exitX=0;exitY=0.5;exitDx=0;exitDy=0;entryX=0;entryY=0.5;entryDx=0;entryDy=0;fontFamily=Times New Roman;labelBorderColor=none;textShadow=0;shadow=1;strokeWidth=1;fontStyle=1;fontSize=12;" parent="1" source="ghngBfLgOj7lOZL47-MO-142" target="ghngBfLgOj7lOZL47-MO-172" edge="1">
          <mxGeometry relative="1" as="geometry">
            <Array as="points">
              <mxPoint x="720" y="826" />
              <mxPoint x="720" y="921" />
            </Array>
          </mxGeometry>
        </mxCell>
        <mxCell id="ghngBfLgOj7lOZL47-MO-142" value="Metadata" style="whiteSpace=wrap;html=1;fillColor=#eeeeee;strokeColor=#36393d;rounded=1;shadow=1;glass=1;fontStyle=1;strokeWidth=1;align=left;verticalAlign=middle;spacingLeft=4;fontFamily=Times New Roman;fontSize=12;fontColor=default;labelBorderColor=none;textShadow=0;" parent="1" vertex="1">
          <mxGeometry x="730" y="796" width="120" height="60" as="geometry" />
        </mxCell>
        <mxCell id="ghngBfLgOj7lOZL47-MO-175" value="&lt;div style=&quot;font-size: 12px;&quot;&gt;&lt;div style=&quot;font-size: 12px;&quot;&gt;&lt;div style=&quot;font-size: 12px;&quot;&gt;&lt;div style=&quot;font-size: 12px;&quot;&gt;&lt;div style=&quot;text-align: center; font-size: 12px;&quot;&gt;Example&lt;/div&gt;&lt;div style=&quot;font-size: 12px;&quot;&gt;&lt;div style=&quot;font-size: 12px;&quot;&gt;1. http://www.truecaller.com/&lt;/div&gt;&lt;div style=&quot;font-size: 12px;&quot;&gt;2. https://www.nationalcellulardirectory.com/&lt;/div&gt;&lt;div style=&quot;font-size: 12px;&quot;&gt;3. https://sync.me/&lt;/div&gt;&lt;div style=&quot;font-size: 12px;&quot;&gt;4. https://whocalld.com/&lt;/div&gt;&lt;/div&gt;&lt;/div&gt;&lt;/div&gt;&lt;/div&gt;&lt;/div&gt;" style="rounded=1;whiteSpace=wrap;html=1;align=left;perimeterSpacing=0;strokeWidth=1;spacingLeft=4;shadow=1;fontSize=12;glass=1;fillColor=#eeeeee;strokeColor=#36393d;fontStyle=1;textShadow=0;fontFamily=Times New Roman;labelBorderColor=none;" parent="1" vertex="1">
          <mxGeometry x="1075" y="396" width="270" height="130" as="geometry" />
        </mxCell>
        <mxCell id="ghngBfLgOj7lOZL47-MO-196" style="edgeStyle=orthogonalEdgeStyle;rounded=0;orthogonalLoop=1;jettySize=auto;html=1;exitX=1;exitY=0.5;exitDx=0;exitDy=0;entryX=0.838;entryY=1.045;entryDx=0;entryDy=0;entryPerimeter=0;shadow=1;strokeWidth=1;fontFamily=Times New Roman;fontStyle=1;fontSize=12;" parent="1" source="ghngBfLgOj7lOZL47-MO-142" target="ghngBfLgOj7lOZL47-MO-15" edge="1">
          <mxGeometry relative="1" as="geometry">
            <Array as="points">
              <mxPoint x="1056" y="826" />
            </Array>
          </mxGeometry>
        </mxCell>
        <mxCell id="ghngBfLgOj7lOZL47-MO-204" value="" style="edgeStyle=orthogonalEdgeStyle;rounded=1;orthogonalLoop=1;jettySize=auto;html=1;fontFamily=Times New Roman;shadow=1;strokeWidth=1;fontStyle=1;fontSize=12;" parent="1" source="ghngBfLgOj7lOZL47-MO-202" target="ghngBfLgOj7lOZL47-MO-203" edge="1">
          <mxGeometry relative="1" as="geometry" />
        </mxCell>
        <mxCell id="ghngBfLgOj7lOZL47-MO-202" value="OSINT for Person" style="swimlane;rounded=1;textShadow=1;labelBorderColor=none;labelBackgroundColor=none;whiteSpace=wrap;fillColor=default;glass=1;shadow=1;fontFamily=Times New Roman;strokeWidth=1;fontStyle=1;fontSize=12;" parent="1" vertex="1">
          <mxGeometry x="-60" y="-30" width="1650" height="2510" as="geometry" />
        </mxCell>
        <mxCell id="ghngBfLgOj7lOZL47-MO-146" value="&lt;div style=&quot;text-align: center; font-size: 12px;&quot;&gt;Example&lt;/div&gt;&lt;div style=&quot;font-size: 12px;&quot;&gt;1. https://images.google.com/?gws_rd=ssl&lt;/div&gt;&lt;div style=&quot;font-size: 12px;&quot;&gt;2. http://tineye.com/&lt;/div&gt;&lt;div style=&quot;font-size: 12px;&quot;&gt;3. https://www.yandex.com/images/&lt;/div&gt;&lt;div style=&quot;font-size: 12px;&quot;&gt;4. http://shitu.baidu.com/&lt;/div&gt;" style="whiteSpace=wrap;html=1;align=left;fillColor=#eeeeee;strokeColor=#36393d;rounded=1;shadow=1;glass=1;fontStyle=1;strokeWidth=1;spacingLeft=4;fontFamily=Times New Roman;labelBorderColor=none;textShadow=0;fontSize=12;" parent="ghngBfLgOj7lOZL47-MO-202" vertex="1">
          <mxGeometry x="800" y="506" width="250" height="90" as="geometry" />
        </mxCell>
        <mxCell id="ghngBfLgOj7lOZL47-MO-148" value="&lt;div style=&quot;text-align: center; font-size: 12px;&quot;&gt;Example&lt;/div&gt;&lt;div style=&quot;font-size: 12px;&quot;&gt;1. https://search4faces.com/en&lt;/div&gt;&lt;div style=&quot;font-size: 12px;&quot;&gt;2. https://facecheck.id&lt;/div&gt;&lt;div style=&quot;font-size: 12px;&quot;&gt;3. https://faceagle.com&lt;/div&gt;&lt;div style=&quot;font-size: 12px;&quot;&gt;4. https://same.energy&lt;/div&gt;" style="whiteSpace=wrap;html=1;align=left;fillColor=#eeeeee;strokeColor=#36393d;rounded=1;shadow=1;glass=1;fontStyle=1;strokeWidth=1;spacingLeft=4;fontFamily=Times New Roman;labelBorderColor=none;textShadow=0;fontSize=12;" parent="ghngBfLgOj7lOZL47-MO-202" vertex="1">
          <mxGeometry x="800" y="710" width="190" height="90" as="geometry" />
        </mxCell>
        <mxCell id="ghngBfLgOj7lOZL47-MO-172" value="&lt;div style=&quot;text-align: center; font-size: 12px;&quot;&gt;Example&lt;/div&gt;&lt;div style=&quot;font-size: 12px;&quot;&gt;&lt;div style=&quot;font-size: 12px;&quot;&gt;1. http://exif.regex.info/&lt;/div&gt;&lt;div style=&quot;font-size: 12px;&quot;&gt;2. http://www.exifviewer.org/&lt;/div&gt;&lt;div style=&quot;font-size: 12px;&quot;&gt;3. http://www.exif-search.com/&lt;/div&gt;&lt;div style=&quot;font-size: 12px;&quot;&gt;4. https://fotoforensics.com/&lt;/div&gt;&lt;/div&gt;&lt;div style=&quot;font-size: 12px;&quot;&gt;&lt;br style=&quot;font-size: 12px;&quot;&gt;&lt;/div&gt;" style="whiteSpace=wrap;html=1;align=left;fillColor=#eeeeee;strokeColor=#36393d;rounded=1;shadow=1;glass=1;fontStyle=1;strokeWidth=1;spacingLeft=4;fontFamily=Times New Roman;labelBorderColor=none;textShadow=0;fontSize=12;" parent="ghngBfLgOj7lOZL47-MO-202" vertex="1">
          <mxGeometry x="800" y="906" width="190" height="90" as="geometry" />
        </mxCell>
        <mxCell id="ghngBfLgOj7lOZL47-MO-206" value="" style="edgeStyle=orthogonalEdgeStyle;rounded=1;orthogonalLoop=1;jettySize=auto;html=1;strokeWidth=1;shadow=1;fontFamily=Times New Roman;fontStyle=1;fontSize=12;" parent="1" source="ghngBfLgOj7lOZL47-MO-203" target="ghngBfLgOj7lOZL47-MO-205" edge="1">
          <mxGeometry relative="1" as="geometry" />
        </mxCell>
        <mxCell id="ghngBfLgOj7lOZL47-MO-203" value="&lt;font style=&quot;font-size: 12px;&quot;&gt;Output&lt;/font&gt;" style="whiteSpace=wrap;html=1;fontStyle=1;startSize=23;rounded=1;labelBorderColor=none;labelBackgroundColor=none;glass=1;shadow=1;fontFamily=Times New Roman;fillColor=#d0cee2;strokeColor=#56517e;strokeWidth=1;fontSize=12;" parent="1" vertex="1">
          <mxGeometry x="1750" y="1152.5" width="290" height="145" as="geometry" />
        </mxCell>
        <mxCell id="ghngBfLgOj7lOZL47-MO-205" value="&lt;div style=&quot;font-size: 12px;&quot;&gt;&lt;font style=&quot;font-size: 12px;&quot;&gt;Basic Personal Information:&lt;/font&gt;&lt;/div&gt;&lt;div style=&quot;font-size: 12px;&quot;&gt;&lt;font style=&quot;font-size: 12px;&quot;&gt;&lt;br style=&quot;font-size: 12px;&quot;&gt;&lt;/font&gt;&lt;/div&gt;&lt;div style=&quot;font-size: 12px;&quot;&gt;&lt;font style=&quot;font-size: 12px;&quot;&gt;Name, age, gender, date of birth.&lt;/font&gt;&lt;/div&gt;&lt;div style=&quot;font-size: 12px;&quot;&gt;&lt;font style=&quot;font-size: 12px;&quot;&gt;Known aliases or alternate spellings of the name.&lt;/font&gt;&lt;/div&gt;&lt;div style=&quot;font-size: 12px;&quot;&gt;&lt;font style=&quot;font-size: 12px;&quot;&gt;Contact Information:&lt;/font&gt;&lt;/div&gt;&lt;div style=&quot;font-size: 12px;&quot;&gt;&lt;font style=&quot;font-size: 12px;&quot;&gt;&lt;br style=&quot;font-size: 12px;&quot;&gt;&lt;/font&gt;&lt;/div&gt;&lt;div style=&quot;font-size: 12px;&quot;&gt;&lt;font style=&quot;font-size: 12px;&quot;&gt;Email addresses, phone numbers, and other contact details (if publicly available).&lt;/font&gt;&lt;/div&gt;&lt;div style=&quot;font-size: 12px;&quot;&gt;&lt;font style=&quot;font-size: 12px;&quot;&gt;Social media profiles and usernames on various platforms.&lt;/font&gt;&lt;/div&gt;&lt;div style=&quot;font-size: 12px;&quot;&gt;&lt;font style=&quot;font-size: 12px;&quot;&gt;Employment and Education History:&lt;/font&gt;&lt;/div&gt;&lt;div style=&quot;font-size: 12px;&quot;&gt;&lt;font style=&quot;font-size: 12px;&quot;&gt;&lt;br style=&quot;font-size: 12px;&quot;&gt;&lt;/font&gt;&lt;/div&gt;&lt;div style=&quot;font-size: 12px;&quot;&gt;&lt;font style=&quot;font-size: 12px;&quot;&gt;Current and past employers, job titles, and possibly work history.&lt;/font&gt;&lt;/div&gt;&lt;div style=&quot;font-size: 12px;&quot;&gt;&lt;font style=&quot;font-size: 12px;&quot;&gt;Education background, including schools attended and degrees earned.&lt;/font&gt;&lt;/div&gt;&lt;div style=&quot;font-size: 12px;&quot;&gt;&lt;font style=&quot;font-size: 12px;&quot;&gt;Social Media Activity:&lt;/font&gt;&lt;/div&gt;&lt;div style=&quot;font-size: 12px;&quot;&gt;&lt;font style=&quot;font-size: 12px;&quot;&gt;&lt;br style=&quot;font-size: 12px;&quot;&gt;&lt;/font&gt;&lt;/div&gt;&lt;div style=&quot;font-size: 12px;&quot;&gt;&lt;font style=&quot;font-size: 12px;&quot;&gt;Publicly visible posts, comments, likes, and shares.&lt;/font&gt;&lt;/div&gt;&lt;div style=&quot;font-size: 12px;&quot;&gt;&lt;font style=&quot;font-size: 12px;&quot;&gt;Group memberships, follows, and connections on social networks.&lt;/font&gt;&lt;/div&gt;&lt;div style=&quot;font-size: 12px;&quot;&gt;&lt;font style=&quot;font-size: 12px;&quot;&gt;Possible analysis of tone, interests, and interactions.&lt;/font&gt;&lt;/div&gt;&lt;div style=&quot;font-size: 12px;&quot;&gt;&lt;font style=&quot;font-size: 12px;&quot;&gt;Online Presence:&lt;/font&gt;&lt;/div&gt;&lt;div style=&quot;font-size: 12px;&quot;&gt;&lt;font style=&quot;font-size: 12px;&quot;&gt;&lt;br style=&quot;font-size: 12px;&quot;&gt;&lt;/font&gt;&lt;/div&gt;&lt;div style=&quot;font-size: 12px;&quot;&gt;&lt;font style=&quot;font-size: 12px;&quot;&gt;Websites, blogs, or personal sites created or maintained by the individual.&lt;/font&gt;&lt;/div&gt;&lt;div style=&quot;font-size: 12px;&quot;&gt;&lt;font style=&quot;font-size: 12px;&quot;&gt;Published articles, comments on forums, and engagement on public platforms.&lt;/font&gt;&lt;/div&gt;&lt;div style=&quot;font-size: 12px;&quot;&gt;&lt;font style=&quot;font-size: 12px;&quot;&gt;Professional Affiliations:&lt;/font&gt;&lt;/div&gt;&lt;div style=&quot;font-size: 12px;&quot;&gt;&lt;font style=&quot;font-size: 12px;&quot;&gt;&lt;br style=&quot;font-size: 12px;&quot;&gt;&lt;/font&gt;&lt;/div&gt;&lt;div style=&quot;font-size: 12px;&quot;&gt;&lt;font style=&quot;font-size: 12px;&quot;&gt;Memberships in professional organizations or associations.&lt;/font&gt;&lt;/div&gt;&lt;div style=&quot;font-size: 12px;&quot;&gt;&lt;font style=&quot;font-size: 12px;&quot;&gt;Participation in conferences, publications, or professional events.&lt;/font&gt;&lt;/div&gt;&lt;div style=&quot;font-size: 12px;&quot;&gt;&lt;font style=&quot;font-size: 12px;&quot;&gt;Criminal Records or Legal History:&lt;/font&gt;&lt;/div&gt;&lt;div style=&quot;font-size: 12px;&quot;&gt;&lt;font style=&quot;font-size: 12px;&quot;&gt;&lt;br style=&quot;font-size: 12px;&quot;&gt;&lt;/font&gt;&lt;/div&gt;&lt;div style=&quot;font-size: 12px;&quot;&gt;&lt;font style=&quot;font-size: 12px;&quot;&gt;Any publicly accessible records of legal issues or criminal history, if available and relevant.&lt;/font&gt;&lt;/div&gt;&lt;div style=&quot;font-size: 12px;&quot;&gt;&lt;font style=&quot;font-size: 12px;&quot;&gt;Location Data:&lt;/font&gt;&lt;/div&gt;&lt;div style=&quot;font-size: 12px;&quot;&gt;&lt;font style=&quot;font-size: 12px;&quot;&gt;&lt;br style=&quot;font-size: 12px;&quot;&gt;&lt;/font&gt;&lt;/div&gt;&lt;div style=&quot;font-size: 12px;&quot;&gt;&lt;font style=&quot;font-size: 12px;&quot;&gt;General locations derived from social media check-ins or geo-tagged posts.&lt;/font&gt;&lt;/div&gt;&lt;div style=&quot;font-size: 12px;&quot;&gt;&lt;font style=&quot;font-size: 12px;&quot;&gt;Known addresses (publicly available) or places frequented.&lt;/font&gt;&lt;/div&gt;&lt;div style=&quot;font-size: 12px;&quot;&gt;&lt;font style=&quot;font-size: 12px;&quot;&gt;Photographs and Media:&lt;/font&gt;&lt;/div&gt;&lt;div style=&quot;font-size: 12px;&quot;&gt;&lt;font style=&quot;font-size: 12px;&quot;&gt;&lt;br style=&quot;font-size: 12px;&quot;&gt;&lt;/font&gt;&lt;/div&gt;&lt;div style=&quot;font-size: 12px;&quot;&gt;&lt;font style=&quot;font-size: 12px;&quot;&gt;Publicly available photographs, including those shared on social media.&lt;/font&gt;&lt;/div&gt;&lt;div style=&quot;font-size: 12px;&quot;&gt;&lt;font style=&quot;font-size: 12px;&quot;&gt;Potential facial recognition matches on public databases.&lt;/font&gt;&lt;/div&gt;&lt;div style=&quot;font-size: 12px;&quot;&gt;&lt;font style=&quot;font-size: 12px;&quot;&gt;Public Records:&lt;/font&gt;&lt;/div&gt;&lt;div style=&quot;font-size: 12px;&quot;&gt;&lt;font style=&quot;font-size: 12px;&quot;&gt;&lt;br style=&quot;font-size: 12px;&quot;&gt;&lt;/font&gt;&lt;/div&gt;&lt;div style=&quot;font-size: 12px;&quot;&gt;&lt;font style=&quot;font-size: 12px;&quot;&gt;Property records, voter registration, and other public information that may be accessible by law.&lt;/font&gt;&lt;/div&gt;&lt;div style=&quot;font-size: 12px;&quot;&gt;&lt;font style=&quot;font-size: 12px;&quot;&gt;Behavioral Insights:&lt;/font&gt;&lt;/div&gt;&lt;div style=&quot;font-size: 12px;&quot;&gt;&lt;font style=&quot;font-size: 12px;&quot;&gt;&lt;br style=&quot;font-size: 12px;&quot;&gt;&lt;/font&gt;&lt;/div&gt;&lt;div style=&quot;font-size: 12px;&quot;&gt;&lt;font style=&quot;font-size: 12px;&quot;&gt;Patterns in online behavior, such as frequent topics of discussion or notable opinions.&lt;/font&gt;&lt;/div&gt;&lt;div style=&quot;font-size: 12px;&quot;&gt;&lt;font style=&quot;font-size: 12px;&quot;&gt;Connections and Relationships:&lt;/font&gt;&lt;/div&gt;&lt;div style=&quot;font-size: 12px;&quot;&gt;&lt;font style=&quot;font-size: 12px;&quot;&gt;&lt;br style=&quot;font-size: 12px;&quot;&gt;&lt;/font&gt;&lt;/div&gt;&lt;div style=&quot;font-size: 12px;&quot;&gt;&lt;font style=&quot;font-size: 12px;&quot;&gt;Publicly observable associations or connections, such as family members, friends, and business partners.&lt;/font&gt;&lt;/div&gt;" style="whiteSpace=wrap;html=1;fontStyle=1;startSize=23;rounded=1;labelBorderColor=none;labelBackgroundColor=none;glass=0;shadow=1;fontFamily=Times New Roman;fillColor=#fad7ac;strokeColor=#b46504;strokeWidth=1;fontSize=12;align=left;spacingLeft=10;" parent="1" vertex="1">
          <mxGeometry x="1635" y="1340" width="520" height="770" as="geometry" />
        </mxCell>
      </root>
    </mxGraphModel>
  </diagram>
</mxfile>
